#VRML V2.0 utf8
Shape { appearance Appearance { material Material { diffuseColor 0.84314 0.25882 0.21961 } } geometry IndexedFaceSet { solid TRUE coord Coordinate { point [
3.937008 -1.574803 -7.401575,
3.937008 -13.582677 -7.401575,
15.944882 -13.582677 -7.401575,
15.944882 -13.582677 -6.771654,
3.937008 -13.582677 -6.771654,
3.937008 -1.574803 -6.771654,
15.944882 -1.574803 -7.401575,
15.944882 -1.574803 -6.771654
] } coordIndex [
2 1 0 -1,
5 4 3 -1,
4 1 2 -1,
3 4 2 -1,
5 0 1 -1,
4 5 1 -1,
0 6 2 -1,
3 7 5 -1,
7 6 0 -1,
5 7 0 -1,
3 2 6 -1,
7 3 6 -1
] } }
Shape { appearance Appearance { material Material { diffuseColor 0.12549 0.16863 0.21176 } } geometry IndexedFaceSet { solid TRUE coord Coordinate { point [
11.034148 -6.739896 -8.523622,
11.271945 -7.222100 -8.523622,
11.214007 -7.051420 -8.523622,
11.214007 -7.051420 -7.401575,
11.271945 -7.222100 -7.401575,
11.034148 -6.739896 -7.401575,
11.134287 -6.889764 -8.523622,
11.134287 -6.889764 -7.401575,
10.629921 -6.385398 -8.523622,
10.915305 -6.604380 -8.523622,
10.779789 -6.485537 -8.523622,
10.779789 -6.485537 -7.401575,
10.915305 -6.604380 -7.401575,
10.629921 -6.385398 -7.401575,
10.468265 -6.305678 -8.523622,
10.468265 -6.305678 -7.401575,
9.940945 -6.200787 -8.523622,
10.297585 -6.247740 -8.523622,
10.120804 -6.212576 -8.523622,
10.120804 -6.212576 -7.401575,
10.297585 -6.247740 -7.401575,
9.940945 -6.200787 -7.401575,
9.761086 -6.212576 -8.523622,
9.761086 -6.212576 -7.401575,
9.102100 -6.485537 -8.523622,
9.584304 -6.247740 -8.523622,
9.413625 -6.305678 -8.523622,
9.413625 -6.305678 -7.401575,
9.584304 -6.247740 -7.401575,
9.102100 -6.485537 -7.401575,
9.251969 -6.385398 -8.523622,
9.251969 -6.385398 -7.401575,
8.747603 -6.889764 -8.523622,
8.966585 -6.604380 -8.523622,
8.847741 -6.739896 -8.523622,
8.847741 -6.739896 -7.401575,
8.966585 -6.604380 -7.401575,
8.747603 -6.889764 -7.401575,
8.667883 -7.051420 -8.523622,
8.667883 -7.051420 -7.401575,
8.562992 -7.578740 -8.523622,
8.609945 -7.222100 -8.523622,
8.574781 -7.398881 -8.523622,
8.574781 -7.398881 -7.401575,
8.609945 -7.222100 -7.401575,
8.562992 -7.578740 -7.401575,
8.609945 -7.935381 -8.523622,
8.574781 -7.758599 -8.523622,
8.574781 -7.758599 -7.401575,
8.609945 -7.935381 -7.401575,
8.847741 -8.417585 -8.523622,
8.667883 -8.106060 -8.523622,
8.667883 -8.106060 -7.401575,
8.847741 -8.417585 -7.401575,
8.747603 -8.267717 -8.523622,
8.747603 -8.267717 -7.401575,
9.251969 -8.772082 -8.523622,
8.966585 -8.553100 -8.523622,
9.102100 -8.671944 -8.523622,
9.102100 -8.671944 -7.401575,
8.966585 -8.553100 -7.401575,
9.251969 -8.772082 -7.401575,
11.134287 -8.267717 -8.523622,
10.297585 -8.909740 -8.523622,
10.297585 -8.909740 -7.401575,
11.134287 -8.267717 -7.401575,
9.940945 -8.956693 -8.523622,
9.584304 -8.909740 -8.523622,
9.761086 -8.944904 -8.523622,
9.761086 -8.944904 -7.401575,
9.584304 -8.909740 -7.401575,
9.940945 -8.956693 -7.401575,
10.120804 -8.944904 -8.523622,
10.120804 -8.944904 -7.401575,
10.629921 -8.772082 -8.523622,
10.468265 -8.851803 -8.523622,
10.468265 -8.851803 -7.401575,
10.629921 -8.772082 -7.401575,
10.915305 -8.553100 -8.523622,
10.779789 -8.671944 -8.523622,
10.779789 -8.671944 -7.401575,
10.915305 -8.553100 -7.401575,
11.034148 -8.417585 -8.523622,
11.034148 -8.417585 -7.401575,
11.318898 -7.578740 -8.523622,
11.214007 -8.106060 -8.523622,
11.214007 -8.106060 -7.401575,
11.318898 -7.578740 -7.401575,
11.271945 -7.935381 -8.523622,
11.307109 -7.758599 -8.523622,
11.307109 -7.758599 -7.401575,
11.271945 -7.935381 -7.401575,
11.307109 -7.398881 -8.523622,
11.307109 -7.398881 -7.401575,
9.413625 -8.851803 -8.523622,
9.413625 -8.851803 -7.401575
] } coordIndex [
2 1 0 -1,
5 4 3 -1,
4 1 2 -1,
3 4 2 -1,
0 6 2 -1,
3 7 5 -1,
7 6 0 -1,
5 7 0 -1,
3 2 6 -1,
7 3 6 -1,
10 9 8 -1,
13 12 11 -1,
12 9 10 -1,
11 12 10 -1,
11 10 8 -1,
13 11 8 -1,
14 8 9 -1,
12 13 15 -1,
13 8 14 -1,
15 13 14 -1,
18 17 16 -1,
21 20 19 -1,
20 17 18 -1,
19 20 18 -1,
19 18 16 -1,
21 19 16 -1,
22 16 17 -1,
20 21 23 -1,
21 16 22 -1,
23 21 22 -1,
26 25 24 -1,
29 28 27 -1,
28 25 26 -1,
27 28 26 -1,
24 30 26 -1,
27 31 29 -1,
31 30 24 -1,
29 31 24 -1,
27 26 30 -1,
31 27 30 -1,
34 33 32 -1,
37 36 35 -1,
36 33 34 -1,
35 36 34 -1,
35 34 32 -1,
37 35 32 -1,
38 32 33 -1,
36 37 39 -1,
37 32 38 -1,
39 37 38 -1,
42 41 40 -1,
45 44 43 -1,
44 41 42 -1,
43 44 42 -1,
43 42 40 -1,
45 43 40 -1,
47 40 46 -1,
49 45 48 -1,
45 40 47 -1,
48 45 47 -1,
48 47 46 -1,
49 48 46 -1,
51 46 50 -1,
53 49 52 -1,
49 46 51 -1,
52 49 51 -1,
50 54 51 -1,
52 55 53 -1,
55 54 50 -1,
53 55 50 -1,
52 51 54 -1,
55 52 54 -1,
58 57 56 -1,
61 60 59 -1,
60 57 58 -1,
59 60 58 -1,
59 58 56 -1,
61 59 56 -1,
63 56 62 -1,
65 61 64 -1,
68 67 66 -1,
71 70 69 -1,
70 67 68 -1,
69 70 68 -1,
69 68 66 -1,
71 69 66 -1,
72 66 63 -1,
64 71 73 -1,
71 66 72 -1,
73 71 72 -1,
73 72 63 -1,
64 73 63 -1,
75 63 74 -1,
77 64 76 -1,
64 63 75 -1,
76 64 75 -1,
76 75 74 -1,
77 76 74 -1,
79 74 78 -1,
81 77 80 -1,
77 74 79 -1,
80 77 79 -1,
80 79 78 -1,
81 80 78 -1,
82 78 62 -1,
65 81 83 -1,
81 78 82 -1,
83 81 82 -1,
83 82 62 -1,
65 83 62 -1,
85 1 84 -1,
87 4 86 -1,
89 88 84 -1,
87 91 90 -1,
91 88 89 -1,
90 91 89 -1,
90 89 84 -1,
87 90 84 -1,
92 84 1 -1,
4 87 93 -1,
87 84 92 -1,
93 87 92 -1,
93 92 1 -1,
4 93 1 -1,
0 1 9 -1,
12 4 5 -1,
5 0 9 -1,
12 5 9 -1,
14 9 17 -1,
20 12 15 -1,
15 14 17 -1,
20 15 17 -1,
22 17 25 -1,
28 20 23 -1,
23 22 25 -1,
28 23 25 -1,
25 9 24 -1,
29 12 28 -1,
38 33 41 -1,
44 36 39 -1,
39 38 41 -1,
44 39 41 -1,
41 46 40 -1,
45 49 44 -1,
50 46 56 -1,
61 49 53 -1,
50 56 57 -1,
60 61 53 -1,
53 50 57 -1,
60 53 57 -1,
94 66 67 -1,
70 71 95 -1,
95 94 67 -1,
70 95 67 -1,
63 62 74 -1,
77 65 64 -1,
62 78 74 -1,
77 81 65 -1,
85 84 88 -1,
91 87 86 -1,
86 85 88 -1,
91 86 88 -1,
17 9 25 -1,
28 12 20 -1,
33 24 9 -1,
12 29 36 -1,
29 24 33 -1,
36 29 33 -1,
33 46 41 -1,
44 49 36 -1,
46 33 56 -1,
61 36 49 -1,
94 63 66 -1,
71 64 95 -1,
9 1 62 -1,
65 4 12 -1,
9 62 33 -1,
36 65 12 -1,
94 56 63 -1,
64 61 95 -1,
61 56 94 -1,
95 61 94 -1,
56 33 62 -1,
65 36 61 -1,
85 62 1 -1,
4 65 86 -1,
65 62 85 -1,
86 65 85 -1
] } }
Shape { appearance Appearance { material Material { diffuseColor 0.22353 0.47451 0.52549 } } geometry IndexedFaceSet { solid TRUE coord Coordinate { point [
10.733320 -7.474422 -8.582677,
10.712925 -7.371889 -8.582677,
10.679321 -7.272895 -8.582677,
10.679321 -7.272895 -8.523622,
10.712925 -7.371889 -8.523622,
10.733320 -7.474422 -8.523622,
10.633083 -7.179134 -8.582677,
10.575003 -7.092210 -8.582677,
10.575003 -7.092210 -8.523622,
10.633083 -7.179134 -8.523622,
10.506074 -7.013612 -8.582677,
10.427475 -6.944682 -8.582677,
10.427475 -6.944682 -8.523622,
10.506074 -7.013612 -8.523622,
10.147796 -6.806760 -8.582677,
10.340551 -6.886602 -8.582677,
10.246790 -6.840364 -8.582677,
10.246790 -6.840364 -8.523622,
10.340551 -6.886602 -8.523622,
10.147796 -6.806760 -8.523622,
10.045263 -6.786365 -8.582677,
10.045263 -6.786365 -8.523622,
9.734093 -6.806760 -8.582677,
9.940945 -6.779528 -8.582677,
9.836627 -6.786365 -8.582677,
9.836627 -6.786365 -8.523622,
9.940945 -6.779528 -8.523622,
9.734093 -6.806760 -8.523622,
9.248806 -7.179134 -8.582677,
9.635099 -6.840364 -8.582677,
9.454415 -6.944682 -8.582677,
9.454415 -6.944682 -8.523622,
9.635099 -6.840364 -8.523622,
9.248806 -7.179134 -8.523622,
9.541339 -6.886602 -8.582677,
9.541339 -6.886602 -8.523622,
9.375816 -7.013612 -8.582677,
9.306887 -7.092210 -8.582677,
9.306887 -7.092210 -8.523622,
9.375816 -7.013612 -8.523622,
9.168965 -7.371889 -8.582677,
9.202569 -7.272895 -8.582677,
9.202569 -7.272895 -8.523622,
9.168965 -7.371889 -8.523622,
9.148570 -7.474422 -8.582677,
9.148570 -7.474422 -8.523622,
9.168965 -7.785592 -8.582677,
9.141732 -7.578740 -8.582677,
9.148570 -7.683058 -8.582677,
9.148570 -7.683058 -8.523622,
9.141732 -7.578740 -8.523622,
9.168965 -7.785592 -8.523622,
9.375816 -8.143869 -8.582677,
9.202569 -7.884586 -8.582677,
9.306887 -8.065270 -8.582677,
9.306887 -8.065270 -8.523622,
9.202569 -7.884586 -8.523622,
9.375816 -8.143869 -8.523622,
9.248806 -7.978346 -8.582677,
9.248806 -7.978346 -8.523622,
9.541339 -8.270879 -8.582677,
9.454415 -8.212798 -8.582677,
9.454415 -8.212798 -8.523622,
9.541339 -8.270879 -8.523622,
9.734093 -8.350720 -8.582677,
9.635099 -8.317116 -8.582677,
9.635099 -8.317116 -8.523622,
9.734093 -8.350720 -8.523622,
9.836627 -8.371115 -8.582677,
10.147796 -8.350720 -8.582677,
10.147796 -8.350720 -8.523622,
9.836627 -8.371115 -8.523622,
9.940945 -8.377953 -8.582677,
10.045263 -8.371115 -8.582677,
10.045263 -8.371115 -8.523622,
9.940945 -8.377953 -8.523622,
10.246790 -8.317116 -8.582677,
10.246790 -8.317116 -8.523622,
10.340551 -8.270879 -8.582677,
10.427475 -8.212798 -8.582677,
10.427475 -8.212798 -8.523622,
10.340551 -8.270879 -8.523622,
10.506074 -8.143869 -8.582677,
10.575003 -8.065270 -8.582677,
10.575003 -8.065270 -8.523622,
10.506074 -8.143869 -8.523622,
10.712925 -7.785592 -8.582677,
10.633083 -7.978346 -8.582677,
10.679321 -7.884586 -8.582677,
10.679321 -7.884586 -8.523622,
10.633083 -7.978346 -8.523622,
10.712925 -7.785592 -8.523622,
10.733320 -7.683058 -8.582677,
10.733320 -7.683058 -8.523622,
10.740157 -7.578740 -8.582677,
10.740157 -7.578740 -8.523622
] } coordIndex [
2 1 0 -1,
5 4 3 -1,
4 1 2 -1,
3 4 2 -1,
5 0 1 -1,
4 5 1 -1,
7 6 2 -1,
3 9 8 -1,
9 6 7 -1,
8 9 7 -1,
3 2 6 -1,
9 3 6 -1,
11 10 7 -1,
8 13 12 -1,
13 10 11 -1,
12 13 11 -1,
8 7 10 -1,
13 8 10 -1,
16 15 14 -1,
19 18 17 -1,
18 15 16 -1,
17 18 16 -1,
17 16 14 -1,
19 17 14 -1,
20 14 15 -1,
18 19 21 -1,
19 14 20 -1,
21 19 20 -1,
24 23 22 -1,
27 26 25 -1,
26 23 24 -1,
25 26 24 -1,
25 24 22 -1,
27 25 22 -1,
30 29 28 -1,
33 32 31 -1,
30 34 29 -1,
32 35 31 -1,
35 34 30 -1,
31 35 30 -1,
32 29 34 -1,
35 32 34 -1,
37 36 30 -1,
31 39 38 -1,
39 36 37 -1,
38 39 37 -1,
31 30 36 -1,
39 31 36 -1,
41 28 40 -1,
43 33 42 -1,
33 28 41 -1,
42 33 41 -1,
42 41 40 -1,
43 42 40 -1,
44 40 28 -1,
33 43 45 -1,
43 40 44 -1,
45 43 44 -1,
48 47 46 -1,
51 50 49 -1,
50 47 48 -1,
49 50 48 -1,
49 48 46 -1,
51 49 46 -1,
54 53 52 -1,
57 56 55 -1,
55 54 52 -1,
57 55 52 -1,
54 58 53 -1,
56 59 55 -1,
59 58 54 -1,
55 59 54 -1,
56 53 58 -1,
59 56 58 -1,
61 52 60 -1,
63 57 62 -1,
57 52 61 -1,
62 57 61 -1,
62 61 60 -1,
63 62 60 -1,
65 60 64 -1,
67 63 66 -1,
63 60 65 -1,
66 63 65 -1,
66 65 64 -1,
67 66 64 -1,
69 68 53 -1,
56 71 70 -1,
73 72 69 -1,
70 75 74 -1,
75 72 73 -1,
74 75 73 -1,
74 73 69 -1,
70 74 69 -1,
53 0 76 -1,
77 5 56 -1,
79 78 76 -1,
77 81 80 -1,
81 78 79 -1,
80 81 79 -1,
77 76 78 -1,
81 77 78 -1,
83 82 79 -1,
80 85 84 -1,
85 82 83 -1,
84 85 83 -1,
80 79 82 -1,
85 80 82 -1,
88 87 86 -1,
91 90 89 -1,
90 87 88 -1,
89 90 88 -1,
89 88 86 -1,
91 89 86 -1,
0 92 79 -1,
80 93 5 -1,
0 94 92 -1,
93 95 5 -1,
95 94 0 -1,
5 95 0 -1,
93 92 94 -1,
95 93 94 -1,
7 2 15 -1,
18 3 8 -1,
11 7 15 -1,
18 8 12 -1,
12 11 15 -1,
18 12 15 -1,
20 22 23 -1,
26 27 21 -1,
21 20 23 -1,
26 21 23 -1,
22 20 29 -1,
32 21 27 -1,
27 22 29 -1,
32 27 29 -1,
37 30 28 -1,
33 31 38 -1,
38 37 28 -1,
33 38 28 -1,
44 46 47 -1,
50 51 45 -1,
45 44 47 -1,
50 45 47 -1,
52 53 60 -1,
63 56 57 -1,
60 53 68 -1,
71 56 63 -1,
68 69 72 -1,
75 70 71 -1,
71 68 72 -1,
75 71 72 -1,
20 0 29 -1,
32 5 21 -1,
83 79 87 -1,
90 80 84 -1,
84 83 87 -1,
90 84 87 -1,
92 86 87 -1,
90 91 93 -1,
91 86 92 -1,
93 91 92 -1,
2 0 15 -1,
18 5 3 -1,
0 53 29 -1,
32 56 5 -1,
46 44 29 -1,
32 45 51 -1,
46 29 53 -1,
56 32 51 -1,
51 46 53 -1,
56 51 53 -1,
79 76 0 -1,
5 77 80 -1,
87 79 92 -1,
93 80 90 -1,
0 20 15 -1,
18 21 5 -1,
28 29 44 -1,
45 32 33 -1,
69 53 76 -1,
77 56 70 -1,
70 69 76 -1,
77 70 76 -1,
64 60 68 -1,
71 63 67 -1,
67 64 68 -1,
71 67 68 -1
] } }
Shape { appearance Appearance { material Material { diffuseColor 0.14510 0.17255 0.19608 } } geometry IndexedFaceSet { solid TRUE coord Coordinate { point [
4.940945 -11.692913 -6.771654,
4.940945 -13.700787 -6.771654,
14.940945 -13.700787 -6.771654,
14.940945 -13.700787 -2.440945,
4.940945 -13.700787 -2.440945,
4.940945 -11.692913 -2.440945,
14.940945 -11.692913 -6.771654,
14.940945 -11.692913 -2.440945
] } coordIndex [
2 1 0 -1,
5 4 3 -1,
4 1 2 -1,
3 4 2 -1,
5 0 1 -1,
4 5 1 -1,
0 6 2 -1,
3 7 5 -1,
7 6 0 -1,
5 7 0 -1,
3 2 6 -1,
7 3 6 -1
] } }
Shape { appearance Appearance { material Material { diffuseColor 0.09020 0.34902 0.53725 } } geometry IndexedFaceSet { solid TRUE coord Coordinate { point [
3.376425 -12.644613 4.448819,
2.755906 -1.181102 4.448819,
2.755906 -13.779528 4.448819,
2.755906 -13.779528 4.921260,
2.755906 -1.181102 4.921260,
3.376425 -12.644613 4.921260,
3.349825 -2.216743 4.448819,
3.346457 -2.165354 4.448819,
3.346457 -2.165354 4.921260,
3.349825 -2.216743 4.921260,
18.590551 -12.795276 4.448819,
4.130490 -12.743887 4.448819,
4.133858 -12.795276 4.448819,
4.133858 -12.795276 4.921260,
4.130490 -12.743887 4.921260,
18.590551 -12.795276 4.921260,
4.130490 -2.216743 4.448819,
18.593919 -2.216743 4.448819,
18.590551 -2.165354 4.448819,
18.590551 -2.165354 4.921260,
18.593919 -2.216743 4.921260,
4.130490 -2.216743 4.921260,
18.620520 -12.644613 4.448819,
4.103890 -12.644613 4.448819,
18.603966 -12.693378 4.448819,
18.603966 -12.693378 4.921260,
4.103890 -12.644613 4.921260,
18.620520 -12.644613 4.921260,
3.349825 -12.743887 4.448819,
3.346457 -12.795276 4.448819,
3.346457 -12.795276 4.921260,
3.349825 -12.743887 4.921260,
3.349825 -2.113966 4.448819,
3.349825 -2.113966 4.921260,
3.359872 -2.267252 4.448819,
3.359872 -2.267252 4.921260,
18.593919 -12.743887 4.448819,
18.593919 -12.743887 4.921260,
18.603966 -2.267252 4.448819,
18.603966 -2.267252 4.921260,
4.130490 -12.846664 4.448819,
4.130490 -12.846664 4.921260,
3.349825 -12.846664 4.448819,
3.349825 -12.846664 4.921260,
3.359872 -2.063457 4.448819,
3.359872 -2.063457 4.921260,
3.376425 -2.316017 4.448819,
3.376425 -2.316017 4.921260,
4.120443 -12.693378 4.448819,
4.120443 -12.693378 4.921260,
4.103890 -2.316017 4.448819,
18.620520 -2.316017 4.448819,
18.620520 -2.316017 4.921260,
4.103890 -2.316017 4.921260,
18.593919 -12.846664 4.448819,
18.593919 -12.846664 4.921260,
3.359872 -12.897173 4.448819,
3.359872 -12.897173 4.921260,
3.376425 -2.014692 4.448819,
3.376425 -2.014692 4.921260,
4.081112 -2.362205 4.448819,
18.643297 -2.362205 4.448819,
18.643297 -2.362205 4.921260,
4.081112 -2.362205 4.921260,
18.603966 -12.897173 4.448819,
18.603966 -12.897173 4.921260,
3.376425 -12.945938 4.448819,
3.376425 -12.945938 4.921260,
3.399203 -1.968504 4.448819,
3.399203 -1.968504 4.921260,
3.359872 -12.693378 4.448819,
3.359872 -12.693378 4.921260,
4.052501 -2.405024 4.448819,
18.671908 -2.405024 4.448819,
18.671908 -2.405024 4.921260,
4.052501 -2.405024 4.921260,
4.120443 -12.897173 4.448819,
4.120443 -12.897173 4.921260,
3.399203 -12.992126 4.448819,
3.399203 -12.992126 4.921260,
3.427814 -1.925684 4.448819,
3.427814 -1.925684 4.921260,
4.052501 -12.555606 4.448819,
4.052501 -12.555606 4.921260,
4.081112 -12.598425 4.448819,
4.081112 -12.598425 4.921260,
18.620520 -12.945938 4.448819,
18.620520 -12.945938 4.921260,
3.427814 -13.034945 4.448819,
3.427814 -13.034945 4.921260,
3.461769 -1.886966 4.448819,
3.461769 -1.886966 4.921260,
3.399203 -12.598425 4.448819,
3.399203 -12.598425 4.921260,
4.018546 -2.443743 4.448819,
4.018546 -2.443743 4.921260,
18.643297 -12.598425 4.448819,
18.643297 -12.598425 4.921260,
4.103890 -12.945938 4.448819,
4.103890 -12.945938 4.921260,
3.461769 -13.073664 4.448819,
3.461769 -13.073664 4.921260,
3.500488 -1.853010 4.448819,
3.500488 -1.853010 4.921260,
3.399203 -2.362205 4.448819,
3.399203 -2.362205 4.921260,
4.018546 -12.516887 4.448819,
4.018546 -12.516887 4.921260,
18.643297 -12.992126 4.448819,
18.643297 -12.992126 4.921260,
3.500488 -13.107619 4.448819,
3.500488 -13.107619 4.921260,
3.543307 -1.824399 4.448819,
3.543307 -1.824399 4.921260,
3.427814 -12.555606 4.448819,
3.427814 -12.555606 4.921260,
3.979827 -12.482932 4.448819,
3.979827 -12.482932 4.921260,
18.671908 -12.555606 4.448819,
18.671908 -12.555606 4.921260,
4.081112 -12.992126 4.448819,
4.081112 -12.992126 4.921260,
3.543307 -13.136230 4.448819,
3.543307 -13.136230 4.921260,
3.589495 -1.801622 4.448819,
3.589495 -1.801622 4.921260,
3.427814 -2.405024 4.448819,
3.427814 -2.405024 4.921260,
3.979827 -2.477698 4.448819,
3.979827 -2.477698 4.921260,
18.671908 -13.034945 4.448819,
18.671908 -13.034945 4.921260,
3.589495 -13.159008 4.448819,
3.589495 -13.159008 4.921260,
3.638260 -1.785069 4.448819,
3.638260 -1.785069 4.921260,
3.461769 -2.443743 4.448819,
3.461769 -2.443743 4.921260,
4.133858 -2.165354 4.448819,
18.593919 -2.113966 4.448819,
18.593919 -2.113966 4.921260,
4.133858 -2.165354 4.921260,
18.705863 -2.443743 4.448819,
18.705863 -2.443743 4.921260,
4.052501 -13.034945 4.448819,
4.052501 -13.034945 4.921260,
3.638260 -13.175561 4.448819,
3.638260 -13.175561 4.921260,
3.688769 -1.775022 4.448819,
3.688769 -1.775022 4.921260,
3.461769 -12.516887 4.448819,
3.461769 -12.516887 4.921260,
3.937008 -12.454321 4.448819,
3.937008 -12.454321 4.921260,
18.705863 -12.516887 4.448819,
18.705863 -12.516887 4.921260,
18.705863 -13.073664 4.448819,
18.705863 -13.073664 4.921260,
3.688769 -13.185608 4.448819,
3.688769 -13.185608 4.921260,
3.740157 -1.771654 4.448819,
3.740157 -1.771654 4.921260,
3.500488 -2.477698 4.448819,
3.500488 -2.477698 4.921260,
4.130490 -2.113966 4.448819,
18.603966 -2.063457 4.448819,
18.603966 -2.063457 4.921260,
4.130490 -2.113966 4.921260,
18.744582 -2.477698 4.448819,
18.744582 -2.477698 4.921260,
4.018546 -13.073664 4.448819,
4.018546 -13.073664 4.921260,
3.740157 -13.188976 4.448819,
3.740157 -13.188976 4.921260,
3.791546 -1.775022 4.448819,
3.791546 -1.775022 4.921260,
3.500488 -12.482932 4.448819,
3.500488 -12.482932 4.921260,
3.937008 -2.506309 4.448819,
3.937008 -2.506309 4.921260,
18.744582 -12.482932 4.448819,
18.744582 -12.482932 4.921260,
18.744582 -13.107619 4.448819,
18.744582 -13.107619 4.921260,
3.791546 -13.185608 4.448819,
3.791546 -13.185608 4.921260,
3.842055 -1.785069 4.448819,
3.842055 -1.785069 4.921260,
3.543307 -12.454321 4.448819,
3.543307 -12.454321 4.921260,
4.120443 -2.063457 4.448819,
18.620520 -2.014692 4.448819,
18.620520 -2.014692 4.921260,
4.120443 -2.063457 4.921260,
18.787402 -12.454321 4.448819,
18.787402 -12.454321 4.921260,
3.979827 -13.107619 4.448819,
3.979827 -13.107619 4.921260,
3.842055 -13.175561 4.448819,
3.842055 -13.175561 4.921260,
3.890820 -1.801622 4.448819,
3.890820 -1.801622 4.921260,
3.543307 -2.506309 4.448819,
3.543307 -2.506309 4.921260,
3.890820 -2.529086 4.448819,
3.890820 -2.529086 4.921260,
18.787402 -2.506309 4.448819,
18.787402 -2.506309 4.921260,
18.787402 -13.136230 4.448819,
18.787402 -13.136230 4.921260,
3.890820 -13.159008 4.448819,
3.890820 -13.159008 4.921260,
3.937008 -1.824399 4.448819,
3.937008 -1.824399 4.921260,
3.589495 -2.529086 4.448819,
3.589495 -2.529086 4.921260,
4.103890 -2.014692 4.448819,
18.643297 -1.968504 4.448819,
18.643297 -1.968504 4.921260,
4.103890 -2.014692 4.921260,
18.833589 -2.529086 4.448819,
18.833589 -2.529086 4.921260,
3.937008 -13.136230 4.448819,
3.937008 -13.136230 4.921260,
18.787402 -1.824399 4.448819,
19.968504 -1.181102 4.448819,
19.968504 -1.181102 4.921260,
18.787402 -1.824399 4.921260,
3.589495 -12.431543 4.448819,
3.589495 -12.431543 4.921260,
18.833589 -12.431543 4.448819,
18.833589 -12.431543 4.921260,
19.968504 -13.779528 4.448819,
19.968504 -13.779528 4.921260,
3.979827 -1.853010 4.448819,
3.979827 -1.853010 4.921260,
3.638260 -2.545640 4.448819,
3.638260 -12.414990 4.448819,
3.638260 -12.414990 4.921260,
3.638260 -2.545640 4.921260,
4.081112 -1.968504 4.448819,
18.671908 -1.925684 4.448819,
18.671908 -1.925684 4.921260,
4.081112 -1.968504 4.921260,
18.882355 -2.545640 4.448819,
18.882355 -2.545640 4.921260,
18.833589 -13.159008 4.448819,
18.833589 -13.159008 4.921260,
18.932864 -13.185608 4.448819,
18.984252 -13.188976 4.448819,
18.984252 -13.188976 4.921260,
18.932864 -13.185608 4.921260,
18.744582 -1.853010 4.448819,
4.018546 -1.886966 4.448819,
4.018546 -1.886966 4.921260,
18.744582 -1.853010 4.921260,
18.882355 -12.414990 4.448819,
18.882355 -12.414990 4.921260,
18.882355 -13.175561 4.448819,
18.882355 -13.175561 4.921260,
18.705863 -1.886966 4.448819,
4.052501 -1.925684 4.448819,
4.052501 -1.925684 4.921260,
18.705863 -1.886966 4.921260,
3.688769 -2.555687 4.448819,
3.688769 -2.555687 4.921260,
18.932864 -2.555687 4.448819,
18.932864 -2.555687 4.921260,
3.688769 -12.404943 4.448819,
3.688769 -12.404943 4.921260,
4.120443 -2.267252 4.448819,
4.120443 -2.267252 4.921260,
18.932864 -12.404943 4.448819,
18.932864 -12.404943 4.921260,
19.035640 -13.185608 4.448819,
19.035640 -13.185608 4.921260,
3.740157 -12.401575 4.448819,
3.740157 -12.401575 4.921260,
18.984252 -12.401575 4.448819,
18.984252 -12.401575 4.921260,
19.086149 -13.175561 4.448819,
19.086149 -13.175561 4.921260,
3.740157 -2.559055 4.448819,
3.740157 -2.559055 4.921260,
18.984252 -2.559055 4.448819,
18.984252 -2.559055 4.921260,
19.134915 -13.159008 4.448819,
19.134915 -13.159008 4.921260,
3.791546 -2.555687 4.448819,
3.791546 -2.555687 4.921260,
19.035640 -2.555687 4.448819,
19.035640 -2.555687 4.921260,
19.181102 -13.136230 4.448819,
19.181102 -13.136230 4.921260,
3.791546 -12.404943 4.448819,
3.791546 -12.404943 4.921260,
19.035640 -12.404943 4.448819,
19.035640 -12.404943 4.921260,
19.223922 -13.107619 4.448819,
19.223922 -13.107619 4.921260,
3.842055 -2.545640 4.448819,
3.842055 -2.545640 4.921260,
19.086149 -2.545640 4.448819,
19.086149 -2.545640 4.921260,
19.262640 -13.073664 4.448819,
19.262640 -13.073664 4.921260,
3.842055 -12.414990 4.448819,
3.842055 -12.414990 4.921260,
19.086149 -12.414990 4.448819,
19.086149 -12.414990 4.921260,
19.296596 -13.034945 4.448819,
19.296596 -13.034945 4.921260,
3.890820 -12.431543 4.448819,
3.890820 -12.431543 4.921260,
19.134915 -12.431543 4.448819,
19.134915 -12.431543 4.921260,
19.325207 -12.992126 4.448819,
19.325207 -12.992126 4.921260,
19.134915 -2.529086 4.448819,
19.134915 -2.529086 4.921260,
19.347984 -12.945938 4.448819,
19.347984 -12.945938 4.921260,
19.181102 -12.454321 4.448819,
19.181102 -12.454321 4.921260,
19.364538 -12.897173 4.448819,
19.364538 -12.897173 4.921260,
19.181102 -2.506309 4.448819,
19.181102 -2.506309 4.921260,
19.374585 -12.846664 4.448819,
19.374585 -12.846664 4.921260,
19.223922 -2.477698 4.448819,
19.223922 -2.477698 4.921260,
19.377953 -12.795276 4.448819,
19.377953 -12.795276 4.921260,
18.833589 -1.801622 4.448819,
18.833589 -1.801622 4.921260,
19.223922 -12.482932 4.448819,
19.223922 -12.482932 4.921260,
19.374585 -12.743887 4.448819,
19.374585 -12.743887 4.921260,
18.882355 -1.785069 4.448819,
18.882355 -1.785069 4.921260,
19.262640 -2.443743 4.448819,
19.262640 -2.443743 4.921260,
19.364538 -12.693378 4.448819,
19.364538 -12.693378 4.921260,
18.932864 -1.775022 4.448819,
18.932864 -1.775022 4.921260,
19.262640 -12.516887 4.448819,
19.262640 -12.516887 4.921260,
19.347984 -12.644613 4.448819,
19.347984 -12.644613 4.921260,
18.984252 -1.771654 4.448819,
18.984252 -1.771654 4.921260,
19.296596 -12.555606 4.448819,
19.296596 -12.555606 4.921260,
19.035640 -1.775022 4.448819,
19.035640 -1.775022 4.921260,
19.296596 -2.405024 4.448819,
19.296596 -2.405024 4.921260,
19.347984 -2.316017 4.448819,
19.364538 -2.267252 4.448819,
19.364538 -2.267252 4.921260,
19.347984 -2.316017 4.921260,
19.086149 -1.785069 4.448819,
19.086149 -1.785069 4.921260,
19.325207 -2.362205 4.448819,
19.325207 -2.362205 4.921260,
19.374585 -2.216743 4.448819,
19.374585 -2.216743 4.921260,
19.134915 -1.801622 4.448819,
19.134915 -1.801622 4.921260,
19.325207 -12.598425 4.448819,
19.325207 -12.598425 4.921260,
19.181102 -1.824399 4.448819,
19.181102 -1.824399 4.921260,
19.223922 -1.853010 4.448819,
19.223922 -1.853010 4.921260,
19.377953 -2.165354 4.448819,
19.377953 -2.165354 4.921260,
19.262640 -1.886966 4.448819,
19.262640 -1.886966 4.921260,
19.374585 -2.113966 4.448819,
19.374585 -2.113966 4.921260,
19.296596 -1.925684 4.448819,
19.296596 -1.925684 4.921260,
19.364538 -2.063457 4.448819,
19.364538 -2.063457 4.921260,
19.325207 -1.968504 4.448819,
19.325207 -1.968504 4.921260,
19.347984 -2.014692 4.448819,
19.347984 -2.014692 4.921260
] } coordIndex [
2 1 0 -1,
5 4 3 -1,
4 1 2 -1,
3 4 2 -1,
7 6 1 -1,
4 9 8 -1,
9 6 7 -1,
8 9 7 -1,
12 11 10 -1,
15 14 13 -1,
14 11 12 -1,
13 14 12 -1,
18 17 16 -1,
21 20 19 -1,
20 17 18 -1,
19 20 18 -1,
24 23 22 -1,
27 26 25 -1,
25 24 22 -1,
27 25 22 -1,
29 2 28 -1,
31 3 30 -1,
30 29 28 -1,
31 30 28 -1,
32 7 1 -1,
4 8 33 -1,
8 7 32 -1,
33 8 32 -1,
6 34 1 -1,
4 35 9 -1,
35 34 6 -1,
9 35 6 -1,
10 11 36 -1,
37 14 15 -1,
15 10 36 -1,
37 15 36 -1,
17 38 16 -1,
21 39 20 -1,
39 38 17 -1,
20 39 17 -1,
12 10 40 -1,
41 15 13 -1,
13 12 40 -1,
41 13 40 -1,
2 29 42 -1,
43 30 3 -1,
43 42 29 -1,
30 43 29 -1,
44 32 1 -1,
4 33 45 -1,
33 32 44 -1,
45 33 44 -1,
34 46 1 -1,
4 47 35 -1,
47 46 34 -1,
35 47 34 -1,
48 36 11 -1,
14 37 49 -1,
49 48 11 -1,
14 49 11 -1,
38 51 50 -1,
53 52 39 -1,
52 51 38 -1,
39 52 38 -1,
54 40 10 -1,
15 41 55 -1,
55 54 10 -1,
15 55 10 -1,
2 42 56 -1,
57 43 3 -1,
57 56 42 -1,
43 57 42 -1,
58 44 1 -1,
4 45 59 -1,
45 44 58 -1,
59 45 58 -1,
46 0 1 -1,
4 5 47 -1,
36 48 24 -1,
25 49 37 -1,
37 36 24 -1,
25 37 24 -1,
51 61 60 -1,
63 62 52 -1,
62 61 51 -1,
52 62 51 -1,
64 40 54 -1,
55 41 65 -1,
65 64 54 -1,
55 65 54 -1,
2 56 66 -1,
67 57 3 -1,
67 66 56 -1,
57 67 56 -1,
68 58 1 -1,
4 59 69 -1,
59 58 68 -1,
69 59 68 -1,
28 2 70 -1,
71 3 31 -1,
31 28 70 -1,
71 31 70 -1,
23 24 48 -1,
49 25 26 -1,
26 23 48 -1,
49 26 48 -1,
61 73 72 -1,
75 74 62 -1,
74 73 61 -1,
62 74 61 -1,
40 64 76 -1,
77 65 41 -1,
41 40 76 -1,
77 41 76 -1,
2 66 78 -1,
79 67 3 -1,
79 78 66 -1,
67 79 66 -1,
80 68 1 -1,
4 69 81 -1,
69 68 80 -1,
81 69 80 -1,
70 2 0 -1,
5 3 71 -1,
71 70 0 -1,
5 71 0 -1,
82 72 73 -1,
74 75 83 -1,
84 22 23 -1,
26 27 85 -1,
85 84 23 -1,
26 85 23 -1,
86 76 64 -1,
65 77 87 -1,
87 86 64 -1,
65 87 64 -1,
2 78 88 -1,
89 79 3 -1,
89 88 78 -1,
79 89 78 -1,
90 80 1 -1,
4 81 91 -1,
81 80 90 -1,
91 81 90 -1,
0 46 92 -1,
93 47 5 -1,
5 0 92 -1,
93 5 92 -1,
72 82 94 -1,
95 83 75 -1,
75 72 94 -1,
95 75 94 -1,
22 84 96 -1,
97 85 27 -1,
27 22 96 -1,
97 27 96 -1,
76 86 98 -1,
99 87 77 -1,
77 76 98 -1,
99 77 98 -1,
2 88 100 -1,
101 89 3 -1,
101 100 88 -1,
89 101 88 -1,
102 90 1 -1,
4 91 103 -1,
91 90 102 -1,
103 91 102 -1,
104 92 46 -1,
47 93 105 -1,
105 104 46 -1,
47 105 46 -1,
106 94 82 -1,
83 95 107 -1,
107 106 82 -1,
83 107 82 -1,
82 96 84 -1,
85 97 83 -1,
83 82 84 -1,
85 83 84 -1,
108 98 86 -1,
87 99 109 -1,
109 108 86 -1,
87 109 86 -1,
2 100 110 -1,
111 101 3 -1,
111 110 100 -1,
101 111 100 -1,
112 102 1 -1,
4 103 113 -1,
103 102 112 -1,
113 103 112 -1,
92 104 114 -1,
115 105 93 -1,
93 92 114 -1,
115 93 114 -1,
116 94 106 -1,
107 95 117 -1,
117 116 106 -1,
107 117 106 -1,
96 82 118 -1,
119 83 97 -1,
97 96 118 -1,
119 97 118 -1,
98 108 120 -1,
121 109 99 -1,
99 98 120 -1,
121 99 120 -1,
2 110 122 -1,
123 111 3 -1,
123 122 110 -1,
111 123 110 -1,
124 112 1 -1,
4 113 125 -1,
113 112 124 -1,
125 113 124 -1,
126 114 104 -1,
105 115 127 -1,
127 126 104 -1,
105 127 104 -1,
94 116 128 -1,
129 117 95 -1,
95 94 128 -1,
129 95 128 -1,
73 118 82 -1,
83 119 74 -1,
130 120 108 -1,
109 121 131 -1,
131 130 108 -1,
109 131 108 -1,
2 122 132 -1,
133 123 3 -1,
133 132 122 -1,
123 133 122 -1,
134 124 1 -1,
4 125 135 -1,
125 124 134 -1,
135 125 134 -1,
136 114 126 -1,
127 115 137 -1,
137 136 126 -1,
127 137 126 -1,
139 18 138 -1,
141 19 140 -1,
19 18 139 -1,
140 19 139 -1,
142 118 73 -1,
74 119 143 -1,
143 142 73 -1,
74 143 73 -1,
120 130 144 -1,
145 131 121 -1,
121 120 144 -1,
145 121 144 -1,
2 132 146 -1,
147 133 3 -1,
147 146 132 -1,
133 147 132 -1,
148 134 1 -1,
4 135 149 -1,
135 134 148 -1,
149 135 148 -1,
114 136 150 -1,
151 137 115 -1,
115 114 150 -1,
151 115 150 -1,
152 128 116 -1,
117 129 153 -1,
153 152 116 -1,
117 153 116 -1,
118 142 154 -1,
155 143 119 -1,
119 118 154 -1,
155 119 154 -1,
156 144 130 -1,
131 145 157 -1,
157 156 130 -1,
131 157 130 -1,
2 146 158 -1,
159 147 3 -1,
159 158 146 -1,
147 159 146 -1,
160 148 1 -1,
4 149 161 -1,
149 148 160 -1,
161 149 160 -1,
162 150 136 -1,
137 151 163 -1,
163 162 136 -1,
137 163 136 -1,
165 139 164 -1,
167 140 166 -1,
140 139 165 -1,
166 140 165 -1,
168 154 142 -1,
143 155 169 -1,
169 168 142 -1,
143 169 142 -1,
144 156 170 -1,
171 157 145 -1,
145 144 170 -1,
171 145 170 -1,
2 158 172 -1,
173 159 3 -1,
173 172 158 -1,
159 173 158 -1,
160 1 174 -1,
175 4 161 -1,
161 160 174 -1,
175 161 174 -1,
150 162 176 -1,
177 163 151 -1,
151 150 176 -1,
177 151 176 -1,
128 152 178 -1,
179 153 129 -1,
129 128 178 -1,
179 129 178 -1,
154 168 180 -1,
181 169 155 -1,
155 154 180 -1,
181 155 180 -1,
182 170 156 -1,
157 171 183 -1,
183 182 156 -1,
157 183 156 -1,
2 172 184 -1,
185 173 3 -1,
185 184 172 -1,
173 185 172 -1,
174 1 186 -1,
187 4 175 -1,
175 174 186 -1,
187 175 186 -1,
176 162 188 -1,
189 163 177 -1,
177 176 188 -1,
189 177 188 -1,
191 165 190 -1,
193 166 192 -1,
166 165 191 -1,
192 166 191 -1,
180 168 194 -1,
195 169 181 -1,
181 180 194 -1,
195 181 194 -1,
170 182 196 -1,
197 183 171 -1,
171 170 196 -1,
197 171 196 -1,
2 184 198 -1,
199 185 3 -1,
199 198 184 -1,
185 199 184 -1,
186 1 200 -1,
201 4 187 -1,
187 186 200 -1,
201 187 200 -1,
202 188 162 -1,
163 189 203 -1,
203 202 162 -1,
163 203 162 -1,
178 152 204 -1,
205 153 179 -1,
179 178 204 -1,
205 179 204 -1,
206 194 168 -1,
169 195 207 -1,
207 206 168 -1,
169 207 168 -1,
208 196 182 -1,
183 197 209 -1,
209 208 182 -1,
183 209 182 -1,
2 198 210 -1,
211 199 3 -1,
211 210 198 -1,
199 211 198 -1,
200 1 212 -1,
213 4 201 -1,
201 200 212 -1,
213 201 212 -1,
214 188 202 -1,
203 189 215 -1,
215 214 202 -1,
203 215 202 -1,
217 191 216 -1,
219 192 218 -1,
192 191 217 -1,
218 192 217 -1,
220 194 206 -1,
207 195 221 -1,
221 220 206 -1,
207 221 206 -1,
196 208 222 -1,
223 209 197 -1,
197 196 222 -1,
223 197 222 -1,
2 210 222 -1,
223 211 3 -1,
223 222 210 -1,
211 223 210 -1,
225 224 1 -1,
4 227 226 -1,
226 225 1 -1,
4 226 1 -1,
188 214 228 -1,
229 215 189 -1,
189 188 228 -1,
229 189 228 -1,
72 60 61 -1,
62 63 75 -1,
63 60 72 -1,
75 63 72 -1,
194 220 230 -1,
231 221 195 -1,
195 194 230 -1,
231 195 230 -1,
2 222 232 -1,
233 223 3 -1,
3 2 232 -1,
233 3 232 -1,
208 232 222 -1,
223 233 209 -1,
234 212 224 -1,
227 213 235 -1,
213 212 234 -1,
235 213 234 -1,
237 228 236 -1,
239 229 238 -1,
229 228 237 -1,
238 229 237 -1,
241 217 240 -1,
243 218 242 -1,
218 217 241 -1,
242 218 241 -1,
244 230 220 -1,
221 231 245 -1,
245 244 220 -1,
221 245 220 -1,
246 232 208 -1,
209 233 247 -1,
247 246 208 -1,
209 247 208 -1,
249 232 248 -1,
251 233 250 -1,
250 249 248 -1,
251 250 248 -1,
253 234 252 -1,
255 235 254 -1,
235 234 253 -1,
254 235 253 -1,
214 236 228 -1,
229 239 215 -1,
239 236 214 -1,
215 239 214 -1,
60 50 51 -1,
52 53 63 -1,
53 50 60 -1,
63 53 60 -1,
230 244 256 -1,
257 245 231 -1,
231 230 256 -1,
257 231 256 -1,
258 232 246 -1,
247 233 259 -1,
259 258 246 -1,
247 259 246 -1,
261 253 260 -1,
263 254 262 -1,
254 253 261 -1,
262 254 261 -1,
264 237 236 -1,
239 238 265 -1,
265 264 236 -1,
239 265 236 -1,
260 241 261 -1,
262 242 263 -1,
242 241 260 -1,
263 242 260 -1,
266 256 244 -1,
245 257 267 -1,
267 266 244 -1,
245 267 244 -1,
248 232 258 -1,
259 233 251 -1,
251 248 258 -1,
259 251 258 -1,
240 261 241 -1,
242 262 243 -1,
262 261 240 -1,
243 262 240 -1,
237 264 268 -1,
269 265 238 -1,
238 237 268 -1,
269 238 268 -1,
50 270 38 -1,
39 271 53 -1,
271 270 50 -1,
53 271 50 -1,
256 266 272 -1,
273 267 257 -1,
257 256 272 -1,
273 257 272 -1,
232 249 274 -1,
275 250 233 -1,
275 274 249 -1,
250 275 249 -1,
216 240 217 -1,
218 243 219 -1,
243 240 216 -1,
219 243 216 -1,
268 264 276 -1,
277 265 269 -1,
269 268 276 -1,
277 269 276 -1,
252 260 253 -1,
254 263 255 -1,
263 260 252 -1,
255 263 252 -1,
272 266 278 -1,
279 267 273 -1,
273 272 278 -1,
279 273 278 -1,
232 274 280 -1,
281 275 233 -1,
281 280 274 -1,
275 281 274 -1,
190 216 191 -1,
192 219 193 -1,
219 216 190 -1,
193 219 190 -1,
282 276 264 -1,
265 277 283 -1,
283 282 264 -1,
265 283 264 -1,
270 16 38 -1,
39 21 271 -1,
21 16 270 -1,
271 21 270 -1,
284 278 266 -1,
267 279 285 -1,
285 284 266 -1,
267 285 266 -1,
232 280 286 -1,
287 281 233 -1,
287 286 280 -1,
281 287 280 -1,
164 190 165 -1,
166 193 167 -1,
193 190 164 -1,
167 193 164 -1,
288 276 282 -1,
283 277 289 -1,
289 288 282 -1,
283 289 282 -1,
290 278 284 -1,
285 279 291 -1,
291 290 284 -1,
285 291 284 -1,
232 286 292 -1,
293 287 233 -1,
293 292 286 -1,
287 293 286 -1,
138 164 139 -1,
140 167 141 -1,
167 164 138 -1,
141 167 138 -1,
276 288 294 -1,
295 289 277 -1,
277 276 294 -1,
295 277 294 -1,
278 290 296 -1,
297 291 279 -1,
279 278 296 -1,
297 279 296 -1,
232 292 298 -1,
299 293 233 -1,
299 298 292 -1,
293 299 292 -1,
16 138 18 -1,
19 141 21 -1,
141 138 16 -1,
21 141 16 -1,
300 294 288 -1,
289 295 301 -1,
301 300 288 -1,
289 301 288 -1,
302 296 290 -1,
291 297 303 -1,
303 302 290 -1,
291 303 290 -1,
232 298 304 -1,
305 299 233 -1,
305 304 298 -1,
299 305 298 -1,
294 300 306 -1,
307 301 295 -1,
295 294 306 -1,
307 295 306 -1,
296 302 308 -1,
309 303 297 -1,
297 296 308 -1,
309 297 308 -1,
232 304 310 -1,
311 305 233 -1,
311 310 304 -1,
305 311 304 -1,
306 300 312 -1,
313 301 307 -1,
307 306 312 -1,
313 307 312 -1,
308 302 314 -1,
315 303 309 -1,
309 308 314 -1,
315 309 314 -1,
232 310 316 -1,
317 311 233 -1,
317 316 310 -1,
311 317 310 -1,
204 312 300 -1,
301 313 205 -1,
205 204 300 -1,
301 205 300 -1,
318 314 302 -1,
303 315 319 -1,
319 318 302 -1,
303 319 302 -1,
232 316 320 -1,
321 317 233 -1,
321 320 316 -1,
317 321 316 -1,
312 204 152 -1,
153 205 313 -1,
313 312 152 -1,
153 313 152 -1,
314 318 322 -1,
323 319 315 -1,
315 314 322 -1,
323 315 322 -1,
232 320 324 -1,
325 321 233 -1,
325 324 320 -1,
321 325 320 -1,
224 252 234 -1,
235 255 227 -1,
255 252 224 -1,
227 255 224 -1,
326 322 318 -1,
319 323 327 -1,
327 326 318 -1,
319 327 318 -1,
232 324 328 -1,
329 325 233 -1,
329 328 324 -1,
325 329 324 -1,
212 1 224 -1,
227 4 213 -1,
330 322 326 -1,
327 323 331 -1,
331 330 326 -1,
327 331 326 -1,
232 328 332 -1,
333 329 233 -1,
333 332 328 -1,
329 333 328 -1,
334 224 225 -1,
226 227 335 -1,
227 224 334 -1,
335 227 334 -1,
322 330 336 -1,
337 331 323 -1,
323 322 336 -1,
337 323 336 -1,
232 332 338 -1,
339 333 233 -1,
339 338 332 -1,
333 339 332 -1,
340 334 225 -1,
226 335 341 -1,
335 334 340 -1,
341 335 340 -1,
342 336 330 -1,
331 337 343 -1,
343 342 330 -1,
331 343 330 -1,
232 338 344 -1,
345 339 233 -1,
345 344 338 -1,
339 345 338 -1,
346 340 225 -1,
226 341 347 -1,
341 340 346 -1,
347 341 346 -1,
336 342 348 -1,
349 343 337 -1,
337 336 348 -1,
349 337 348 -1,
232 344 350 -1,
351 345 233 -1,
351 350 344 -1,
345 351 344 -1,
352 346 225 -1,
226 347 353 -1,
347 346 352 -1,
353 347 352 -1,
348 342 354 -1,
355 343 349 -1,
349 348 354 -1,
355 349 354 -1,
232 350 225 -1,
226 351 233 -1,
233 232 225 -1,
226 233 225 -1,
356 352 225 -1,
226 353 357 -1,
353 352 356 -1,
357 353 356 -1,
358 354 342 -1,
343 355 359 -1,
359 358 342 -1,
343 359 342 -1,
361 225 360 -1,
363 226 362 -1,
362 361 360 -1,
363 362 360 -1,
364 356 225 -1,
226 357 365 -1,
357 356 364 -1,
365 357 364 -1,
366 354 358 -1,
359 355 367 -1,
367 366 358 -1,
359 367 358 -1,
368 225 361 -1,
362 226 369 -1,
369 368 361 -1,
362 369 361 -1,
370 364 225 -1,
226 365 371 -1,
365 364 370 -1,
371 365 370 -1,
354 366 372 -1,
373 367 355 -1,
355 354 372 -1,
373 355 372 -1,
350 360 225 -1,
226 363 351 -1,
374 370 225 -1,
226 371 375 -1,
371 370 374 -1,
375 371 374 -1,
350 372 360 -1,
363 373 351 -1,
373 372 350 -1,
351 373 350 -1,
366 360 372 -1,
373 363 367 -1,
363 360 366 -1,
367 363 366 -1,
376 374 225 -1,
226 375 377 -1,
375 374 376 -1,
377 375 376 -1,
378 225 368 -1,
369 226 379 -1,
379 378 368 -1,
369 379 368 -1,
380 376 225 -1,
226 377 381 -1,
377 376 380 -1,
381 377 380 -1,
225 378 382 -1,
383 379 226 -1,
383 382 378 -1,
379 383 378 -1,
384 380 225 -1,
226 381 385 -1,
381 380 384 -1,
385 381 384 -1,
225 382 386 -1,
387 383 226 -1,
387 386 382 -1,
383 387 382 -1,
388 384 225 -1,
226 385 389 -1,
385 384 388 -1,
389 385 388 -1,
225 386 390 -1,
391 387 226 -1,
391 390 386 -1,
387 391 386 -1,
390 388 225 -1,
226 389 391 -1,
389 388 390 -1,
391 389 390 -1
] } }
Shape { appearance Appearance { material Material { diffuseColor 0.07451 0.11373 0.15294 } } geometry IndexedFaceSet { solid TRUE coord Coordinate { point [
4.724409 -1.275591 4.921260,
4.724409 -13.685039 4.921260,
18.000000 -13.685039 4.921260,
18.000000 -13.685039 5.814961,
4.724409 -13.685039 5.814961,
4.724409 -1.275591 5.814961,
18.000000 -1.275591 4.921260,
18.000000 -1.275591 5.814961
] } coordIndex [
2 1 0 -1,
5 4 3 -1,
4 1 2 -1,
3 4 2 -1,
5 0 1 -1,
4 5 1 -1,
0 6 2 -1,
3 7 5 -1,
7 6 0 -1,
5 7 0 -1,
3 2 6 -1,
7 3 6 -1
] } }
Shape { appearance Appearance { material Material { diffuseColor 0.56863 0.78039 0.80784 } } geometry IndexedFaceSet { solid TRUE coord Coordinate { point [
5.555118 -2.023622 5.814961,
5.555118 -12.937008 5.814961,
16.468504 -12.937008 5.814961,
16.468504 -12.937008 5.826772,
5.555118 -12.937008 5.826772,
5.555118 -2.023622 5.826772,
16.468504 -2.023622 5.814961,
16.468504 -2.023622 5.826772
] } coordIndex [
2 1 0 -1,
5 4 3 -1,
4 1 2 -1,
3 4 2 -1,
5 0 1 -1,
4 5 1 -1,
0 6 2 -1,
3 7 5 -1,
7 6 0 -1,
5 7 0 -1,
3 2 6 -1,
7 3 6 -1
] } }
Shape { appearance Appearance { material Material { diffuseColor 0.14510 0.17255 0.19608 } } geometry IndexedFaceSet { solid TRUE coord Coordinate { point [
2.834646 -3.228346 0.000000,
2.834646 -11.220472 0.000000,
3.858268 -11.220472 0.000000,
3.858268 -11.220472 4.448819,
2.834646 -11.220472 4.448819,
2.834646 -3.228346 4.448819,
3.858268 -3.228346 0.000000,
3.858268 -3.228346 4.448819
] } coordIndex [
2 1 0 -1,
5 4 3 -1,
4 1 2 -1,
3 4 2 -1,
5 0 1 -1,
4 5 1 -1,
0 6 2 -1,
3 7 5 -1,
7 6 0 -1,
5 7 0 -1,
3 2 6 -1,
7 3 6 -1
] } }
Shape { appearance Appearance { material Material { diffuseColor 0.13725 0.17255 0.20392 } } geometry IndexedFaceSet { solid TRUE coord Coordinate { point [
20.000000 -3.543307 0.000000,
20.000000 -5.905512 0.000000,
20.511811 -4.724409 0.000000,
20.511811 -4.724409 1.496063,
20.000000 -5.905512 1.496063,
20.000000 -3.543307 1.496063,
20.517537 -4.811769 0.000000,
20.517537 -4.811769 1.496063,
20.517537 -4.637049 0.000000,
20.517537 -4.637049 1.496063,
20.534617 -4.897635 0.000000,
20.534617 -4.897635 1.496063,
20.534617 -4.551184 0.000000,
20.534617 -4.551184 1.496063,
20.562758 -4.980536 0.000000,
20.562758 -4.980536 1.496063,
20.562758 -4.468283 0.000000,
20.562758 -4.468283 1.496063,
20.601479 -5.059055 0.000000,
20.601479 -5.059055 1.496063,
20.601479 -4.389764 0.000000,
20.601479 -4.389764 1.496063,
20.650118 -5.131848 0.000000,
20.650118 -5.131848 1.496063,
20.650118 -4.316971 0.000000,
20.650118 -4.316971 1.496063,
20.707842 -5.197670 0.000000,
20.707842 -5.197670 1.496063,
20.707842 -4.251149 0.000000,
20.707842 -4.251149 1.496063,
20.773664 -5.255394 0.000000,
20.773664 -5.255394 1.496063,
20.773664 -4.193425 0.000000,
20.773664 -4.193425 1.496063,
20.846457 -5.304033 0.000000,
20.846457 -5.304033 1.496063,
20.846457 -4.144786 0.000000,
20.846457 -4.144786 1.496063,
20.924976 -5.342754 0.000000,
20.924976 -5.342754 1.496063,
20.924976 -4.106065 0.000000,
20.924976 -4.106065 1.496063,
21.007877 -5.370895 0.000000,
21.007877 -5.370895 1.496063,
21.007877 -4.077924 0.000000,
21.007877 -4.077924 1.496063,
21.093742 -5.387975 0.000000,
21.093742 -5.387975 1.496063,
21.093742 -4.060844 0.000000,
21.093742 -4.060844 1.496063,
21.181102 -5.393701 0.000000,
21.181102 -5.393701 1.496063,
21.181102 -4.055118 0.000000,
21.181102 -4.055118 1.496063,
22.362205 -5.905512 0.000000,
22.362205 -5.905512 1.496063,
22.362205 -3.543307 0.000000,
22.362205 -3.543307 1.496063,
21.268462 -5.387975 0.000000,
21.268462 -5.387975 1.496063,
21.268462 -4.060844 0.000000,
21.268462 -4.060844 1.496063,
21.354328 -5.370895 0.000000,
21.354328 -5.370895 1.496063,
21.354328 -4.077924 0.000000,
21.354328 -4.077924 1.496063,
21.437229 -5.342754 0.000000,
21.437229 -5.342754 1.496063,
21.437229 -4.106065 0.000000,
21.437229 -4.106065 1.496063,
21.515748 -5.304033 0.000000,
21.515748 -5.304033 1.496063,
21.515748 -4.144786 0.000000,
21.515748 -4.144786 1.496063,
21.588541 -5.255394 0.000000,
21.588541 -5.255394 1.496063,
21.588541 -4.193425 0.000000,
21.588541 -4.193425 1.496063,
21.654363 -5.197670 0.000000,
21.654363 -5.197670 1.496063,
21.654363 -4.251149 0.000000,
21.654363 -4.251149 1.496063,
21.712087 -5.131848 0.000000,
21.712087 -5.131848 1.496063,
21.712087 -4.316971 0.000000,
21.712087 -4.316971 1.496063,
21.760726 -5.059055 0.000000,
21.760726 -5.059055 1.496063,
21.760726 -4.389764 0.000000,
21.760726 -4.389764 1.496063,
21.799447 -4.980536 0.000000,
21.799447 -4.980536 1.496063,
21.799447 -4.468283 0.000000,
21.799447 -4.468283 1.496063,
21.827588 -4.897635 0.000000,
21.827588 -4.897635 1.496063,
21.827588 -4.551184 0.000000,
21.827588 -4.551184 1.496063,
21.844668 -4.811769 0.000000,
21.844668 -4.811769 1.496063,
21.844668 -4.637049 0.000000,
21.844668 -4.637049 1.496063,
21.850394 -4.724409 0.000000,
21.850394 -4.724409 1.496063,
21.799447 -4.468283 2.874016,
21.588541 -4.193425 2.874016,
21.760726 -4.389764 2.874016,
21.712087 -4.316971 2.874016,
21.654363 -4.251149 2.874016,
21.354328 -4.077924 2.874016,
21.515748 -4.144786 2.874016,
21.268462 -4.060844 2.874016,
21.181102 -4.055118 2.874016,
21.093742 -4.060844 2.874016,
21.007877 -4.077924 2.874016,
20.924976 -4.106065 2.874016,
20.846457 -4.144786 2.874016,
20.773664 -4.193425 2.874016,
20.650118 -4.316971 2.874016,
20.707842 -4.251149 2.874016,
20.562758 -4.468283 2.874016,
20.601479 -4.389764 2.874016,
20.517537 -4.637049 2.874016,
20.534617 -4.551184 2.874016,
20.517537 -4.811769 2.874016,
20.511811 -4.724409 2.874016,
20.562758 -4.980536 2.874016,
20.534617 -4.897635 2.874016,
20.650118 -5.131848 2.874016,
20.601479 -5.059055 2.874016,
20.773664 -5.255394 2.874016,
20.707842 -5.197670 2.874016,
20.924976 -5.342754 2.874016,
20.846457 -5.304033 2.874016,
21.093742 -5.387975 2.874016,
21.007877 -5.370895 2.874016,
21.181102 -5.393701 2.874016,
21.268462 -5.387975 2.874016,
21.354328 -5.370895 2.874016,
21.437229 -5.342754 2.874016,
21.515748 -5.304033 2.874016,
21.588541 -5.255394 2.874016,
21.712087 -5.131848 2.874016,
21.654363 -5.197670 2.874016,
21.799447 -4.980536 2.874016,
21.760726 -5.059055 2.874016,
21.844668 -4.811769 2.874016,
21.827588 -4.897635 2.874016,
21.844668 -4.637049 2.874016,
21.850394 -4.724409 2.874016,
21.437229 -4.106065 2.874016,
21.827588 -4.551184 2.874016
] } coordIndex [
2 1 0 -1,
5 4 3 -1,
5 0 1 -1,
4 5 1 -1,
1 2 6 -1,
7 3 4 -1,
8 2 0 -1,
5 3 9 -1,
1 6 10 -1,
11 7 4 -1,
12 8 0 -1,
5 9 13 -1,
1 10 14 -1,
15 11 4 -1,
16 12 0 -1,
5 13 17 -1,
1 14 18 -1,
19 15 4 -1,
20 16 0 -1,
5 17 21 -1,
1 18 22 -1,
23 19 4 -1,
24 20 0 -1,
5 21 25 -1,
1 22 26 -1,
27 23 4 -1,
28 24 0 -1,
5 25 29 -1,
1 26 30 -1,
31 27 4 -1,
32 28 0 -1,
5 29 33 -1,
1 30 34 -1,
35 31 4 -1,
36 32 0 -1,
5 33 37 -1,
1 34 38 -1,
39 35 4 -1,
40 36 0 -1,
5 37 41 -1,
1 38 42 -1,
43 39 4 -1,
40 0 44 -1,
45 5 41 -1,
1 42 46 -1,
47 43 4 -1,
44 0 48 -1,
49 5 45 -1,
1 46 50 -1,
51 47 4 -1,
48 0 52 -1,
53 5 49 -1,
1 50 54 -1,
55 51 4 -1,
4 1 54 -1,
55 4 54 -1,
56 52 0 -1,
5 53 57 -1,
57 56 0 -1,
5 57 0 -1,
58 54 50 -1,
51 55 59 -1,
60 52 56 -1,
57 53 61 -1,
62 54 58 -1,
59 55 63 -1,
64 60 56 -1,
57 61 65 -1,
66 54 62 -1,
63 55 67 -1,
68 64 56 -1,
57 65 69 -1,
54 66 70 -1,
71 67 55 -1,
72 68 56 -1,
57 69 73 -1,
54 70 74 -1,
75 71 55 -1,
76 72 56 -1,
57 73 77 -1,
54 74 78 -1,
79 75 55 -1,
80 76 56 -1,
57 77 81 -1,
54 78 82 -1,
83 79 55 -1,
84 80 56 -1,
57 81 85 -1,
54 82 86 -1,
87 83 55 -1,
88 84 56 -1,
57 85 89 -1,
54 86 90 -1,
91 87 55 -1,
92 88 56 -1,
57 89 93 -1,
54 90 94 -1,
95 91 55 -1,
92 56 96 -1,
97 57 93 -1,
54 94 98 -1,
99 95 55 -1,
96 56 100 -1,
101 57 97 -1,
54 98 102 -1,
103 99 55 -1,
100 56 102 -1,
103 57 101 -1,
54 102 56 -1,
57 103 55 -1,
55 54 56 -1,
57 55 56 -1,
92 76 88 -1,
84 88 76 -1,
76 80 84 -1,
76 64 72 -1,
60 64 52 -1,
48 52 44 -1,
40 44 36 -1,
32 36 52 -1,
24 28 32 -1,
16 20 24 -1,
8 12 6 -1,
6 2 8 -1,
14 10 16 -1,
22 18 14 -1,
30 26 22 -1,
38 34 30 -1,
46 42 50 -1,
58 50 62 -1,
66 62 70 -1,
74 70 62 -1,
82 78 74 -1,
90 86 82 -1,
98 94 100 -1,
100 102 98 -1,
68 72 64 -1,
92 64 76 -1,
44 52 36 -1,
64 32 52 -1,
16 24 32 -1,
6 12 10 -1,
22 14 30 -1,
38 30 14 -1,
50 42 62 -1,
74 62 90 -1,
90 82 74 -1,
100 94 96 -1,
32 64 16 -1,
16 64 14 -1,
16 10 12 -1,
38 14 42 -1,
90 62 14 -1,
94 90 96 -1,
92 14 64 -1,
14 92 90 -1,
42 14 62 -1,
96 90 92 -1,
106 105 104 -1,
104 93 89 -1,
106 104 89 -1,
105 106 107 -1,
106 89 85 -1,
107 106 85 -1,
107 108 105 -1,
108 81 77 -1,
105 108 77 -1,
107 85 81 -1,
108 107 81 -1,
110 109 105 -1,
105 77 73 -1,
110 105 73 -1,
112 109 111 -1,
109 65 61 -1,
111 109 61 -1,
111 61 53 -1,
112 111 53 -1,
114 112 113 -1,
112 53 49 -1,
113 112 49 -1,
113 49 45 -1,
114 113 45 -1,
116 114 115 -1,
114 45 41 -1,
115 114 41 -1,
115 41 37 -1,
116 115 37 -1,
112 116 117 -1,
116 37 33 -1,
117 116 33 -1,
117 119 118 -1,
119 29 25 -1,
118 119 25 -1,
117 33 29 -1,
119 117 29 -1,
118 121 120 -1,
121 21 17 -1,
120 121 17 -1,
118 25 21 -1,
121 118 21 -1,
124 123 122 -1,
123 13 9 -1,
122 123 9 -1,
122 125 124 -1,
125 3 7 -1,
124 125 7 -1,
122 9 3 -1,
125 122 3 -1,
120 127 126 -1,
127 11 15 -1,
126 127 15 -1,
126 129 128 -1,
129 19 23 -1,
128 129 23 -1,
126 15 19 -1,
129 126 19 -1,
128 131 130 -1,
131 27 31 -1,
130 131 31 -1,
128 23 27 -1,
131 128 27 -1,
130 133 132 -1,
133 35 39 -1,
132 133 39 -1,
130 31 35 -1,
133 130 35 -1,
136 135 134 -1,
135 43 47 -1,
134 135 47 -1,
134 47 51 -1,
136 134 51 -1,
138 136 137 -1,
136 51 59 -1,
137 136 59 -1,
137 59 63 -1,
138 137 63 -1,
140 138 139 -1,
138 63 67 -1,
139 138 67 -1,
139 67 71 -1,
140 139 71 -1,
138 140 141 -1,
140 71 75 -1,
141 140 75 -1,
141 143 142 -1,
143 79 83 -1,
142 143 83 -1,
141 75 79 -1,
143 141 79 -1,
142 145 144 -1,
145 87 91 -1,
144 145 91 -1,
142 83 87 -1,
145 142 87 -1,
148 147 146 -1,
147 95 99 -1,
146 147 99 -1,
146 149 148 -1,
149 103 101 -1,
148 149 101 -1,
146 99 103 -1,
149 146 103 -1,
109 110 150 -1,
110 73 69 -1,
150 110 69 -1,
150 69 65 -1,
109 150 65 -1,
105 109 104 -1,
116 112 114 -1,
112 117 109 -1,
117 118 120 -1,
127 123 124 -1,
124 7 11 -1,
127 124 11 -1,
130 126 128 -1,
126 130 132 -1,
138 135 136 -1,
144 138 141 -1,
141 142 144 -1,
151 147 148 -1,
148 101 97 -1,
151 148 97 -1,
120 109 117 -1,
126 109 120 -1,
123 127 120 -1,
120 17 13 -1,
123 120 13 -1,
135 126 132 -1,
132 39 43 -1,
135 132 43 -1,
126 138 144 -1,
151 144 147 -1,
144 91 95 -1,
147 144 95 -1,
109 126 104 -1,
144 104 126 -1,
138 126 135 -1,
104 144 151 -1,
151 97 93 -1,
104 151 93 -1
] } }
Shape { appearance Appearance { material Material { diffuseColor 0.13725 0.17255 0.20392 } } geometry IndexedFaceSet { solid TRUE coord Coordinate { point [
20.000000 -9.055118 0.000000,
20.000000 -11.417323 0.000000,
20.511811 -10.236220 0.000000,
20.511811 -10.236220 1.496063,
20.000000 -11.417323 1.496063,
20.000000 -9.055118 1.496063,
20.517537 -10.323581 0.000000,
20.517537 -10.323581 1.496063,
20.517537 -10.148860 0.000000,
20.517537 -10.148860 1.496063,
20.534617 -10.409446 0.000000,
20.534617 -10.409446 1.496063,
20.534617 -10.062995 0.000000,
20.534617 -10.062995 1.496063,
20.562758 -10.492347 0.000000,
20.562758 -10.492347 1.496063,
20.562758 -9.980094 0.000000,
20.562758 -9.980094 1.496063,
20.601479 -10.570866 0.000000,
20.601479 -10.570866 1.496063,
20.601479 -9.901575 0.000000,
20.601479 -9.901575 1.496063,
20.650118 -10.643659 0.000000,
20.650118 -10.643659 1.496063,
20.650118 -9.828782 0.000000,
20.650118 -9.828782 1.496063,
20.707842 -10.709481 0.000000,
20.707842 -10.709481 1.496063,
20.707842 -9.762960 0.000000,
20.707842 -9.762960 1.496063,
20.773664 -10.767205 0.000000,
20.773664 -10.767205 1.496063,
20.773664 -9.705236 0.000000,
20.773664 -9.705236 1.496063,
20.846457 -10.815844 0.000000,
20.846457 -10.815844 1.496063,
20.846457 -9.656597 0.000000,
20.846457 -9.656597 1.496063,
20.924976 -10.854565 0.000000,
20.924976 -10.854565 1.496063,
20.924976 -9.617876 0.000000,
20.924976 -9.617876 1.496063,
21.007877 -10.882706 0.000000,
21.007877 -10.882706 1.496063,
21.007877 -9.589735 0.000000,
21.007877 -9.589735 1.496063,
21.093742 -10.899786 0.000000,
21.093742 -10.899786 1.496063,
21.093742 -9.572655 0.000000,
21.093742 -9.572655 1.496063,
21.181102 -10.905512 0.000000,
21.181102 -10.905512 1.496063,
21.181102 -9.566929 0.000000,
21.181102 -9.566929 1.496063,
22.362205 -11.417323 0.000000,
22.362205 -11.417323 1.496063,
22.362205 -9.055118 0.000000,
22.362205 -9.055118 1.496063,
21.268462 -10.899786 0.000000,
21.268462 -10.899786 1.496063,
21.268462 -9.572655 0.000000,
21.268462 -9.572655 1.496063,
21.354328 -10.882706 0.000000,
21.354328 -10.882706 1.496063,
21.354328 -9.589735 0.000000,
21.354328 -9.589735 1.496063,
21.437229 -10.854565 0.000000,
21.437229 -10.854565 1.496063,
21.437229 -9.617876 0.000000,
21.437229 -9.617876 1.496063,
21.515748 -10.815844 0.000000,
21.515748 -10.815844 1.496063,
21.515748 -9.656597 0.000000,
21.515748 -9.656597 1.496063,
21.588541 -10.767205 0.000000,
21.588541 -10.767205 1.496063,
21.588541 -9.705236 0.000000,
21.588541 -9.705236 1.496063,
21.654363 -10.709481 0.000000,
21.654363 -10.709481 1.496063,
21.654363 -9.762960 0.000000,
21.654363 -9.762960 1.496063,
21.712087 -10.643659 0.000000,
21.712087 -10.643659 1.496063,
21.712087 -9.828782 0.000000,
21.712087 -9.828782 1.496063,
21.760726 -10.570866 0.000000,
21.760726 -10.570866 1.496063,
21.760726 -9.901575 0.000000,
21.760726 -9.901575 1.496063,
21.799447 -10.492347 0.000000,
21.799447 -10.492347 1.496063,
21.799447 -9.980094 0.000000,
21.799447 -9.980094 1.496063,
21.827588 -10.409446 0.000000,
21.827588 -10.409446 1.496063,
21.827588 -10.062995 0.000000,
21.827588 -10.062995 1.496063,
21.844668 -10.323581 0.000000,
21.844668 -10.323581 1.496063,
21.844668 -10.148860 0.000000,
21.844668 -10.148860 1.496063,
21.850394 -10.236220 0.000000,
21.850394 -10.236220 1.496063,
21.799447 -9.980094 2.874016,
21.799447 -10.492347 2.874016,
20.601479 -10.570866 2.874016,
21.712087 -9.828782 2.874016,
21.760726 -9.901575 2.874016,
21.588541 -9.705236 2.874016,
21.654363 -9.762960 2.874016,
21.437229 -9.617876 2.874016,
21.515748 -9.656597 2.874016,
21.354328 -9.589735 2.874016,
21.268462 -9.572655 2.874016,
21.181102 -9.566929 2.874016,
21.093742 -9.572655 2.874016,
21.007877 -9.589735 2.874016,
20.924976 -9.617876 2.874016,
20.846457 -9.656597 2.874016,
20.773664 -9.705236 2.874016,
20.650118 -9.828782 2.874016,
20.707842 -9.762960 2.874016,
20.562758 -9.980094 2.874016,
20.601479 -9.901575 2.874016,
20.517537 -10.148860 2.874016,
20.534617 -10.062995 2.874016,
20.517537 -10.323581 2.874016,
20.511811 -10.236220 2.874016,
20.562758 -10.492347 2.874016,
20.534617 -10.409446 2.874016,
20.650118 -10.643659 2.874016,
20.707842 -10.709481 2.874016,
20.773664 -10.767205 2.874016,
20.924976 -10.854565 2.874016,
20.846457 -10.815844 2.874016,
21.093742 -10.899786 2.874016,
21.007877 -10.882706 2.874016,
21.181102 -10.905512 2.874016,
21.268462 -10.899786 2.874016,
21.354328 -10.882706 2.874016,
21.437229 -10.854565 2.874016,
21.515748 -10.815844 2.874016,
21.588541 -10.767205 2.874016,
21.712087 -10.643659 2.874016,
21.654363 -10.709481 2.874016,
21.760726 -10.570866 2.874016,
21.844668 -10.323581 2.874016,
21.827588 -10.409446 2.874016,
21.844668 -10.148860 2.874016,
21.850394 -10.236220 2.874016,
21.827588 -10.062995 2.874016
] } coordIndex [
2 1 0 -1,
5 4 3 -1,
5 0 1 -1,
4 5 1 -1,
1 2 6 -1,
7 3 4 -1,
8 2 0 -1,
5 3 9 -1,
1 6 10 -1,
11 7 4 -1,
12 8 0 -1,
5 9 13 -1,
1 10 14 -1,
15 11 4 -1,
16 12 0 -1,
5 13 17 -1,
1 14 18 -1,
19 15 4 -1,
20 16 0 -1,
5 17 21 -1,
1 18 22 -1,
23 19 4 -1,
24 20 0 -1,
5 21 25 -1,
1 22 26 -1,
27 23 4 -1,
28 24 0 -1,
5 25 29 -1,
1 26 30 -1,
31 27 4 -1,
32 28 0 -1,
5 29 33 -1,
1 30 34 -1,
35 31 4 -1,
36 32 0 -1,
5 33 37 -1,
1 34 38 -1,
39 35 4 -1,
40 36 0 -1,
5 37 41 -1,
1 38 42 -1,
43 39 4 -1,
40 0 44 -1,
45 5 41 -1,
1 42 46 -1,
47 43 4 -1,
44 0 48 -1,
49 5 45 -1,
1 46 50 -1,
51 47 4 -1,
48 0 52 -1,
53 5 49 -1,
1 50 54 -1,
55 51 4 -1,
4 1 54 -1,
55 4 54 -1,
56 52 0 -1,
5 53 57 -1,
57 56 0 -1,
5 57 0 -1,
58 54 50 -1,
51 55 59 -1,
60 52 56 -1,
57 53 61 -1,
62 54 58 -1,
59 55 63 -1,
64 60 56 -1,
57 61 65 -1,
66 54 62 -1,
63 55 67 -1,
68 64 56 -1,
57 65 69 -1,
54 66 70 -1,
71 67 55 -1,
72 68 56 -1,
57 69 73 -1,
54 70 74 -1,
75 71 55 -1,
76 72 56 -1,
57 73 77 -1,
54 74 78 -1,
79 75 55 -1,
80 76 56 -1,
57 77 81 -1,
54 78 82 -1,
83 79 55 -1,
84 80 56 -1,
57 81 85 -1,
54 82 86 -1,
87 83 55 -1,
88 84 56 -1,
57 85 89 -1,
54 86 90 -1,
91 87 55 -1,
92 88 56 -1,
57 89 93 -1,
54 90 94 -1,
95 91 55 -1,
92 56 96 -1,
97 57 93 -1,
54 94 98 -1,
99 95 55 -1,
96 56 100 -1,
101 57 97 -1,
54 98 102 -1,
103 99 55 -1,
100 56 102 -1,
103 57 101 -1,
54 102 56 -1,
57 103 55 -1,
55 54 56 -1,
57 55 56 -1,
92 90 18 -1,
84 88 92 -1,
76 80 84 -1,
68 72 64 -1,
60 64 52 -1,
48 52 44 -1,
40 44 36 -1,
32 36 44 -1,
24 28 32 -1,
16 20 24 -1,
8 12 6 -1,
6 2 8 -1,
14 10 18 -1,
22 18 26 -1,
30 26 38 -1,
38 34 30 -1,
46 42 50 -1,
58 50 62 -1,
66 62 70 -1,
74 70 62 -1,
82 78 74 -1,
90 86 82 -1,
98 94 100 -1,
100 102 98 -1,
84 92 76 -1,
72 76 64 -1,
64 44 52 -1,
32 44 16 -1,
16 24 32 -1,
10 6 12 -1,
26 18 38 -1,
38 18 42 -1,
50 42 62 -1,
74 62 90 -1,
90 82 74 -1,
100 94 96 -1,
92 64 76 -1,
18 10 64 -1,
16 10 12 -1,
16 44 10 -1,
62 42 90 -1,
90 96 94 -1,
44 64 10 -1,
92 18 64 -1,
18 90 42 -1,
96 90 92 -1,
106 105 104 -1,
104 108 107 -1,
108 89 85 -1,
107 108 85 -1,
104 93 89 -1,
108 104 89 -1,
107 110 109 -1,
110 81 77 -1,
109 110 77 -1,
107 85 81 -1,
110 107 81 -1,
113 112 111 -1,
112 73 69 -1,
111 112 69 -1,
111 69 65 -1,
113 111 65 -1,
115 113 114 -1,
113 65 61 -1,
114 113 61 -1,
114 61 53 -1,
115 114 53 -1,
117 115 116 -1,
115 53 49 -1,
116 115 49 -1,
116 49 45 -1,
117 116 45 -1,
119 117 118 -1,
117 45 41 -1,
118 117 41 -1,
118 41 37 -1,
119 118 37 -1,
117 119 120 -1,
119 37 33 -1,
120 119 33 -1,
120 122 121 -1,
122 29 25 -1,
121 122 25 -1,
120 33 29 -1,
122 120 29 -1,
121 124 123 -1,
124 21 17 -1,
123 124 17 -1,
121 25 21 -1,
124 121 21 -1,
127 126 125 -1,
126 13 9 -1,
125 126 9 -1,
125 128 127 -1,
128 3 7 -1,
127 128 7 -1,
125 9 3 -1,
128 125 3 -1,
106 130 129 -1,
130 11 15 -1,
129 130 15 -1,
129 15 19 -1,
106 129 19 -1,
132 106 131 -1,
106 19 23 -1,
131 106 23 -1,
131 23 27 -1,
132 131 27 -1,
134 132 133 -1,
132 27 31 -1,
133 132 31 -1,
133 135 134 -1,
135 35 39 -1,
134 135 39 -1,
133 31 35 -1,
135 133 35 -1,
138 137 136 -1,
137 43 47 -1,
136 137 47 -1,
136 47 51 -1,
138 136 51 -1,
140 138 139 -1,
138 51 59 -1,
139 138 59 -1,
139 59 63 -1,
140 139 63 -1,
142 140 141 -1,
140 63 67 -1,
141 140 67 -1,
141 67 71 -1,
142 141 71 -1,
140 142 143 -1,
142 71 75 -1,
143 142 75 -1,
143 145 144 -1,
145 79 83 -1,
144 145 83 -1,
143 75 79 -1,
145 143 79 -1,
144 146 105 -1,
146 87 91 -1,
105 146 91 -1,
144 83 87 -1,
146 144 87 -1,
149 148 147 -1,
148 95 99 -1,
147 148 99 -1,
147 150 149 -1,
150 103 101 -1,
149 150 101 -1,
147 99 103 -1,
150 147 103 -1,
109 104 107 -1,
113 109 112 -1,
109 77 73 -1,
112 109 73 -1,
115 117 113 -1,
123 117 120 -1,
120 121 123 -1,
126 127 130 -1,
127 7 11 -1,
130 127 11 -1,
134 106 132 -1,
137 106 134 -1,
134 39 43 -1,
137 134 43 -1,
140 137 138 -1,
105 140 143 -1,
143 144 105 -1,
151 148 149 -1,
149 101 97 -1,
151 149 97 -1,
109 113 104 -1,
113 130 106 -1,
126 130 123 -1,
123 17 13 -1,
126 123 13 -1,
130 117 123 -1,
105 137 140 -1,
148 151 105 -1,
105 91 95 -1,
148 105 95 -1,
130 113 117 -1,
113 106 104 -1,
137 105 106 -1,
104 105 151 -1,
151 97 93 -1,
104 151 93 -1
] } }
Shape { appearance Appearance { material Material { diffuseColor 0.14510 0.17255 0.19608 } } geometry IndexedFaceSet { solid TRUE coord Coordinate { point [
1.023622 -3.488189 -3.976378,
1.023622 -4.472441 -3.976378,
21.023622 -4.472441 -3.976378,
21.023622 -4.472441 -0.629921,
1.023622 -4.472441 -0.629921,
1.023622 -3.488189 -0.629921,
21.023622 -3.488189 -3.976378,
21.023622 -3.488189 -0.629921,
21.023622 -10.488189 -3.976378,
1.023622 -10.488189 -3.976378,
1.023622 -11.472441 -3.976378,
1.023622 -11.472441 -0.629921,
1.023622 -10.488189 -0.629921,
21.023622 -10.488189 -0.629921,
21.023622 -11.472441 -3.976378,
21.023622 -11.472441 -0.629921
] } coordIndex [
2 1 0 -1,
5 4 3 -1,
4 1 2 -1,
3 4 2 -1,
5 0 1 -1,
4 5 1 -1,
0 6 2 -1,
3 7 5 -1,
7 6 0 -1,
5 7 0 -1,
3 2 6 -1,
7 3 6 -1,
10 9 8 -1,
13 12 11 -1,
12 9 10 -1,
11 12 10 -1,
13 8 9 -1,
12 13 9 -1,
8 14 10 -1,
11 15 13 -1,
15 14 8 -1,
13 15 8 -1,
11 10 14 -1,
15 11 14 -1
] } }
Shape { appearance Appearance { material Material { diffuseColor 0.20392 0.23137 0.25882 } } geometry IndexedFaceSet { solid TRUE coord Coordinate { point [
1.023622 -3.488189 -4.960630,
1.023622 -4.472441 -4.960630,
21.023622 -4.472441 -4.960630,
21.023622 -4.472441 -3.976378,
1.023622 -4.472441 -3.976378,
1.023622 -3.488189 -3.976378,
21.023622 -3.488189 -4.960630,
21.023622 -3.488189 -3.976378,
21.023622 -10.488189 -4.960630,
1.023622 -10.488189 -4.960630,
1.023622 -11.472441 -4.960630,
1.023622 -11.472441 -3.976378,
1.023622 -10.488189 -3.976378,
21.023622 -10.488189 -3.976378,
21.023622 -11.472441 -4.960630,
21.023622 -11.472441 -3.976378
] } coordIndex [
2 1 0 -1,
5 4 3 -1,
4 1 2 -1,
3 4 2 -1,
5 0 1 -1,
4 5 1 -1,
0 6 2 -1,
3 7 5 -1,
7 6 0 -1,
5 7 0 -1,
3 2 6 -1,
7 3 6 -1,
10 9 8 -1,
13 12 11 -1,
12 9 10 -1,
11 12 10 -1,
13 8 9 -1,
12 13 9 -1,
8 14 10 -1,
11 15 13 -1,
15 14 8 -1,
13 15 8 -1,
11 10 14 -1,
15 11 14 -1
] } }
Shape { appearance Appearance { material Material { diffuseColor 0.19608 0.59216 0.42745 } } geometry IndexedFaceSet { solid TRUE coord Coordinate { point [
1.361804 -9.670452 -5.354331,
0.984252 -11.614173 -5.354331,
1.358268 -9.724409 -5.354331,
1.358268 -9.724409 -4.960630,
0.984252 -11.614173 -4.960630,
1.361804 -9.670452 -4.960630,
0.984252 -3.346457 -5.354331,
1.361804 -5.290178 -5.354331,
1.358268 -5.236220 -5.354331,
1.358268 -5.236220 -4.960630,
1.361804 -5.290178 -4.960630,
0.984252 -3.346457 -4.960630,
19.865741 -9.670452 -5.354331,
2.185039 -9.724409 -5.354331,
19.862205 -9.724409 -5.354331,
19.862205 -9.724409 -4.960630,
2.185039 -9.724409 -4.960630,
19.865741 -9.670452 -4.960630,
2.185039 -5.236220 -5.354331,
19.865741 -5.290178 -5.354331,
19.862205 -5.236220 -5.354331,
19.862205 -5.236220 -4.960630,
19.865741 -5.290178 -4.960630,
2.185039 -5.236220 -4.960630,
2.170954 -9.617417 -5.354331,
2.181503 -9.670452 -5.354331,
2.181503 -9.670452 -4.960630,
2.170954 -9.617417 -4.960630,
1.361804 -5.182263 -5.354331,
1.361804 -5.182263 -4.960630,
2.170954 -5.343213 -5.354331,
19.876291 -5.343213 -5.354331,
19.876291 -5.343213 -4.960630,
2.170954 -5.343213 -4.960630,
19.865741 -9.778367 -5.354331,
19.865741 -9.778367 -4.960630,
1.361804 -9.778367 -5.354331,
1.361804 -9.778367 -4.960630,
1.372353 -5.129228 -5.354331,
1.372353 -5.129228 -4.960630,
1.372353 -9.617417 -5.354331,
1.372353 -9.617417 -4.960630,
19.876291 -9.617417 -5.354331,
19.876291 -9.617417 -4.960630,
2.181503 -9.778367 -5.354331,
2.181503 -9.778367 -4.960630,
1.372353 -9.831402 -5.354331,
1.372353 -9.831402 -4.960630,
1.389735 -5.078025 -5.354331,
1.389735 -5.078025 -4.960630,
1.372353 -5.343213 -5.354331,
1.372353 -5.343213 -4.960630,
2.153572 -5.394416 -5.354331,
2.153572 -5.394416 -4.960630,
2.170954 -9.831402 -5.354331,
2.170954 -9.831402 -4.960630,
1.389735 -9.882605 -5.354331,
1.389735 -9.882605 -4.960630,
1.413651 -5.029528 -5.354331,
1.413651 -5.029528 -4.960630,
1.389735 -5.394416 -5.354331,
1.389735 -5.394416 -4.960630,
19.865741 -5.182263 -5.354331,
19.865741 -5.182263 -4.960630,
19.893672 -5.394416 -5.354331,
19.893672 -5.394416 -4.960630,
19.876291 -9.831402 -5.354331,
19.876291 -9.831402 -4.960630,
1.413651 -9.931102 -5.354331,
1.413651 -9.931102 -4.960630,
1.443693 -4.984567 -5.354331,
1.443693 -4.984567 -4.960630,
1.389735 -9.566214 -5.354331,
1.389735 -9.566214 -4.960630,
2.153572 -9.566214 -5.354331,
2.153572 -9.566214 -4.960630,
19.893672 -9.566214 -5.354331,
19.893672 -9.566214 -4.960630,
19.893672 -9.882605 -5.354331,
19.893672 -9.882605 -4.960630,
1.443693 -9.976063 -5.354331,
1.443693 -9.976063 -4.960630,
1.479346 -4.943913 -5.354331,
1.479346 -4.943913 -4.960630,
1.413651 -5.442913 -5.354331,
1.413651 -5.442913 -4.960630,
2.170954 -5.129228 -5.354331,
2.181503 -5.182263 -5.354331,
2.181503 -5.182263 -4.960630,
2.170954 -5.129228 -4.960630,
19.917588 -5.442913 -5.354331,
19.917588 -5.442913 -4.960630,
2.153572 -9.882605 -5.354331,
2.153572 -9.882605 -4.960630,
1.479346 -10.016717 -5.354331,
1.479346 -10.016717 -4.960630,
1.520000 -4.908259 -5.354331,
1.520000 -4.908259 -4.960630,
1.413651 -9.517717 -5.354331,
1.413651 -9.517717 -4.960630,
2.129656 -9.517717 -5.354331,
2.129656 -9.517717 -4.960630,
19.917588 -9.517717 -5.354331,
19.917588 -9.517717 -4.960630,
2.129656 -9.931102 -5.354331,
2.129656 -9.931102 -4.960630,
1.520000 -10.052370 -5.354331,
1.520000 -10.052370 -4.960630,
1.564961 -4.878218 -5.354331,
1.564961 -4.878218 -4.960630,
1.443693 -9.472756 -5.354331,
1.443693 -9.472756 -4.960630,
19.876291 -5.129228 -5.354331,
19.893672 -5.078025 -5.354331,
19.893672 -5.078025 -4.960630,
19.876291 -5.129228 -4.960630,
19.947630 -5.487874 -5.354331,
19.947630 -5.487874 -4.960630,
19.917588 -9.931102 -5.354331,
19.917588 -9.931102 -4.960630,
1.564961 -10.082412 -5.354331,
1.564961 -10.082412 -4.960630,
1.613458 -4.854302 -5.354331,
1.613458 -4.854302 -4.960630,
1.443693 -5.487874 -5.354331,
1.443693 -5.487874 -4.960630,
2.129656 -5.442913 -5.354331,
2.129656 -5.442913 -4.960630,
19.947630 -9.472756 -5.354331,
19.947630 -9.472756 -4.960630,
19.947630 -9.976063 -5.354331,
2.099615 -9.976063 -5.354331,
2.099615 -9.976063 -4.960630,
19.947630 -9.976063 -4.960630,
1.613458 -10.106328 -5.354331,
1.613458 -10.106328 -4.960630,
1.664661 -4.836920 -5.354331,
1.664661 -4.836920 -4.960630,
1.479346 -5.528528 -5.354331,
1.479346 -5.528528 -4.960630,
2.129656 -5.029528 -5.354331,
19.917588 -5.029528 -5.354331,
19.917588 -5.029528 -4.960630,
2.129656 -5.029528 -4.960630,
19.983283 -5.528528 -5.354331,
19.983283 -9.432102 -5.354331,
19.983283 -9.432102 -4.960630,
19.983283 -5.528528 -4.960630,
1.664661 -10.123709 -5.354331,
1.664661 -10.123709 -4.960630,
1.717696 -4.826371 -5.354331,
1.717696 -4.826371 -4.960630,
1.479346 -9.432102 -5.354331,
1.479346 -9.432102 -4.960630,
2.099615 -9.472756 -5.354331,
2.099615 -9.472756 -4.960630,
21.062992 -11.614173 -5.354331,
21.062992 -11.614173 -4.960630,
1.717696 -10.134259 -5.354331,
1.717696 -10.134259 -4.960630,
1.771654 -4.822835 -5.354331,
1.771654 -4.822835 -4.960630,
1.520000 -5.564181 -5.354331,
1.520000 -5.564181 -4.960630,
19.947630 -4.984567 -5.354331,
19.947630 -4.984567 -4.960630,
20.023937 -5.564181 -5.354331,
20.023937 -5.564181 -4.960630,
2.063961 -10.016717 -5.354331,
2.063961 -10.016717 -4.960630,
1.771654 -10.137795 -5.354331,
1.771654 -10.137795 -4.960630,
1.825611 -4.826371 -5.354331,
1.825611 -4.826371 -4.960630,
1.520000 -9.396448 -5.354331,
1.520000 -9.396448 -4.960630,
2.099615 -5.487874 -5.354331,
2.099615 -5.487874 -4.960630,
20.023937 -9.396448 -5.354331,
20.023937 -9.396448 -4.960630,
1.825611 -10.134259 -5.354331,
1.825611 -10.134259 -4.960630,
1.878646 -4.836920 -5.354331,
1.878646 -4.836920 -4.960630,
1.564961 -5.594223 -5.354331,
1.564961 -5.594223 -4.960630,
21.062992 -3.346457 -5.354331,
19.983283 -4.943913 -5.354331,
19.983283 -4.943913 -4.960630,
21.062992 -3.346457 -4.960630,
20.068898 -5.594223 -5.354331,
20.068898 -9.366407 -5.354331,
20.068898 -9.366407 -4.960630,
20.068898 -5.594223 -4.960630,
19.983283 -10.016717 -5.354331,
19.983283 -10.016717 -4.960630,
1.878646 -10.123709 -5.354331,
1.878646 -10.123709 -4.960630,
1.929849 -4.854302 -5.354331,
1.929849 -4.854302 -4.960630,
1.564961 -9.366407 -5.354331,
1.564961 -9.366407 -4.960630,
2.063961 -9.432102 -5.354331,
2.063961 -9.432102 -4.960630,
20.023937 -10.052370 -5.354331,
20.023937 -10.052370 -4.960630,
1.929849 -10.106328 -5.354331,
1.929849 -10.106328 -4.960630,
1.978346 -4.878218 -5.354331,
1.978346 -4.878218 -4.960630,
1.613458 -9.342491 -5.354331,
1.613458 -9.342491 -4.960630,
20.023937 -4.908259 -5.354331,
20.023937 -4.908259 -4.960630,
20.117395 -9.342491 -5.354331,
20.117395 -9.342491 -4.960630,
20.068898 -10.082412 -5.354331,
20.068898 -10.082412 -4.960630,
1.978346 -10.082412 -5.354331,
1.978346 -10.082412 -4.960630,
2.023307 -4.908259 -5.354331,
2.023307 -4.908259 -4.960630,
1.613458 -5.618139 -5.354331,
1.613458 -5.618139 -4.960630,
2.063961 -5.528528 -5.354331,
2.063961 -5.528528 -4.960630,
20.117395 -5.618139 -5.354331,
20.117395 -5.618139 -4.960630,
20.117395 -10.106328 -5.354331,
20.117395 -10.106328 -4.960630,
2.023307 -10.052370 -5.354331,
2.023307 -10.052370 -4.960630,
2.063961 -4.943913 -5.354331,
2.063961 -4.943913 -4.960630,
1.664661 -5.635521 -5.354331,
1.664661 -5.635521 -4.960630,
20.068898 -4.878218 -5.354331,
20.068898 -4.878218 -4.960630,
20.168598 -5.635521 -5.354331,
20.168598 -9.325109 -5.354331,
20.168598 -9.325109 -4.960630,
20.168598 -5.635521 -4.960630,
20.168598 -10.123709 -5.354331,
20.168598 -10.123709 -4.960630,
2.099615 -4.984567 -5.354331,
2.099615 -4.984567 -4.960630,
1.664661 -9.325109 -5.354331,
1.664661 -9.325109 -4.960630,
2.023307 -5.564181 -5.354331,
2.023307 -5.564181 -4.960630,
20.221633 -10.134259 -5.354331,
20.221633 -10.134259 -4.960630,
1.717696 -5.646070 -5.354331,
1.717696 -5.646070 -4.960630,
20.117395 -4.854302 -5.354331,
20.117395 -4.854302 -4.960630,
20.221633 -5.646070 -5.354331,
20.221633 -5.646070 -4.960630,
20.275591 -10.137795 -5.354331,
20.275591 -10.137795 -4.960630,
1.717696 -9.314560 -5.354331,
1.717696 -9.314560 -4.960630,
2.023307 -9.396448 -5.354331,
2.023307 -9.396448 -4.960630,
20.221633 -9.314560 -5.354331,
20.221633 -9.314560 -4.960630,
20.329548 -10.134259 -5.354331,
20.329548 -10.134259 -4.960630,
2.153572 -5.078025 -5.354331,
2.153572 -5.078025 -4.960630,
1.771654 -5.649606 -5.354331,
1.771654 -5.649606 -4.960630,
20.168598 -4.836920 -5.354331,
20.168598 -4.836920 -4.960630,
20.275591 -5.649606 -5.354331,
20.275591 -5.649606 -4.960630,
20.382583 -10.123709 -5.354331,
20.382583 -10.123709 -4.960630,
1.771654 -9.311024 -5.354331,
1.771654 -9.311024 -4.960630,
20.275591 -9.311024 -5.354331,
20.275591 -9.311024 -4.960630,
20.433786 -10.106328 -5.354331,
20.433786 -10.106328 -4.960630,
1.825611 -5.646070 -5.354331,
1.825611 -5.646070 -4.960630,
20.329548 -5.646070 -5.354331,
20.329548 -5.646070 -4.960630,
20.482283 -10.082412 -5.354331,
20.482283 -10.082412 -4.960630,
1.825611 -9.314560 -5.354331,
1.825611 -9.314560 -4.960630,
20.329548 -9.314560 -5.354331,
20.329548 -9.314560 -4.960630,
20.527244 -10.052370 -5.354331,
20.527244 -10.052370 -4.960630,
2.181503 -5.290178 -5.354331,
2.181503 -5.290178 -4.960630,
1.878646 -5.635521 -5.354331,
1.878646 -5.635521 -4.960630,
20.382583 -5.635521 -5.354331,
20.382583 -5.635521 -4.960630,
20.567898 -10.016717 -5.354331,
20.567898 -10.016717 -4.960630,
1.878646 -9.325109 -5.354331,
1.878646 -9.325109 -4.960630,
20.382583 -9.325109 -5.354331,
20.382583 -9.325109 -4.960630,
20.603552 -9.976063 -5.354331,
20.603552 -9.976063 -4.960630,
1.929849 -9.342491 -5.354331,
1.929849 -9.342491 -4.960630,
20.433786 -9.342491 -5.354331,
20.433786 -9.342491 -4.960630,
20.633593 -9.931102 -5.354331,
20.633593 -9.931102 -4.960630,
1.929849 -5.618139 -5.354331,
1.929849 -5.618139 -4.960630,
20.433786 -5.618139 -5.354331,
20.433786 -5.618139 -4.960630,
20.657509 -9.882605 -5.354331,
20.657509 -9.882605 -4.960630,
1.978346 -5.594223 -5.354331,
1.978346 -5.594223 -4.960630,
20.482283 -5.594223 -5.354331,
20.482283 -5.594223 -4.960630,
20.674891 -9.831402 -5.354331,
20.674891 -9.831402 -4.960630,
1.978346 -9.366407 -5.354331,
1.978346 -9.366407 -4.960630,
20.482283 -9.366407 -5.354331,
20.482283 -9.366407 -4.960630,
20.685440 -9.778367 -5.354331,
20.685440 -9.778367 -4.960630,
20.527244 -5.564181 -5.354331,
20.527244 -5.564181 -4.960630,
20.688976 -9.724409 -5.354331,
20.688976 -9.724409 -4.960630,
20.527244 -9.396448 -5.354331,
20.527244 -9.396448 -4.960630,
20.685440 -9.670452 -5.354331,
20.685440 -9.670452 -4.960630,
20.567898 -9.432102 -5.354331,
20.567898 -9.432102 -4.960630,
20.221633 -4.826371 -5.354331,
20.221633 -4.826371 -4.960630,
20.567898 -5.528528 -5.354331,
20.567898 -5.528528 -4.960630,
20.685440 -5.290178 -5.354331,
20.685440 -5.290178 -4.960630,
20.275591 -4.822835 -5.354331,
20.275591 -4.822835 -4.960630,
20.603552 -5.487874 -5.354331,
20.603552 -9.472756 -5.354331,
20.603552 -9.472756 -4.960630,
20.603552 -5.487874 -4.960630,
20.674891 -9.617417 -5.354331,
20.674891 -9.617417 -4.960630,
20.329548 -4.826371 -5.354331,
20.329548 -4.826371 -4.960630,
20.674891 -5.343213 -5.354331,
20.674891 -5.343213 -4.960630,
20.382583 -4.836920 -5.354331,
20.382583 -4.836920 -4.960630,
20.633593 -5.442913 -5.354331,
20.633593 -5.442913 -4.960630,
20.657509 -5.394416 -5.354331,
20.657509 -5.394416 -4.960630,
20.433786 -4.854302 -5.354331,
20.433786 -4.854302 -4.960630,
20.633593 -9.517717 -5.354331,
20.633593 -9.517717 -4.960630,
20.657509 -9.566214 -5.354331,
20.657509 -9.566214 -4.960630,
20.482283 -4.878218 -5.354331,
20.482283 -4.878218 -4.960630,
20.527244 -4.908259 -5.354331,
20.527244 -4.908259 -4.960630,
20.688976 -5.236220 -5.354331,
20.688976 -5.236220 -4.960630,
20.567898 -4.943913 -5.354331,
20.567898 -4.943913 -4.960630,
20.685440 -5.182263 -5.354331,
20.685440 -5.182263 -4.960630,
20.603552 -4.984567 -5.354331,
20.603552 -4.984567 -4.960630,
20.674891 -5.129228 -5.354331,
20.674891 -5.129228 -4.960630,
20.633593 -5.029528 -5.354331,
20.633593 -5.029528 -4.960630,
20.657509 -5.078025 -5.354331,
20.657509 -5.078025 -4.960630
] } coordIndex [
2 1 0 -1,
5 4 3 -1,
3 2 0 -1,
5 3 0 -1,
8 7 6 -1,
11 10 9 -1,
10 7 8 -1,
9 10 8 -1,
14 13 12 -1,
17 16 15 -1,
15 14 12 -1,
17 15 12 -1,
20 19 18 -1,
23 22 21 -1,
22 19 20 -1,
21 22 20 -1,
25 24 12 -1,
17 27 26 -1,
27 24 25 -1,
26 27 25 -1,
6 7 1 -1,
4 10 11 -1,
11 6 1 -1,
4 11 1 -1,
28 8 6 -1,
11 9 29 -1,
9 8 28 -1,
29 9 28 -1,
7 0 1 -1,
4 5 10 -1,
25 12 13 -1,
16 17 26 -1,
26 25 13 -1,
16 26 13 -1,
19 31 30 -1,
33 32 22 -1,
32 31 19 -1,
22 32 19 -1,
13 14 34 -1,
35 15 16 -1,
35 34 14 -1,
15 35 14 -1,
1 2 36 -1,
37 3 4 -1,
37 36 2 -1,
3 37 2 -1,
38 28 6 -1,
11 29 39 -1,
29 28 38 -1,
39 29 38 -1,
0 7 40 -1,
41 10 5 -1,
5 0 40 -1,
41 5 40 -1,
24 30 42 -1,
43 33 27 -1,
42 12 24 -1,
27 17 43 -1,
17 12 42 -1,
43 17 42 -1,
13 34 44 -1,
45 35 16 -1,
16 13 44 -1,
45 16 44 -1,
1 36 46 -1,
47 37 4 -1,
47 46 36 -1,
37 47 36 -1,
48 38 6 -1,
11 39 49 -1,
39 38 48 -1,
49 39 48 -1,
50 40 7 -1,
10 41 51 -1,
51 50 7 -1,
10 51 7 -1,
30 24 52 -1,
53 27 33 -1,
33 30 52 -1,
53 33 52 -1,
31 42 30 -1,
33 43 32 -1,
44 34 54 -1,
55 35 45 -1,
45 44 54 -1,
55 45 54 -1,
1 46 56 -1,
57 47 4 -1,
57 56 46 -1,
47 57 46 -1,
58 48 6 -1,
11 49 59 -1,
49 48 58 -1,
59 49 58 -1,
60 40 50 -1,
51 41 61 -1,
61 60 50 -1,
51 61 50 -1,
62 20 18 -1,
23 21 63 -1,
21 20 62 -1,
63 21 62 -1,
64 42 31 -1,
32 43 65 -1,
65 64 31 -1,
32 65 31 -1,
66 54 34 -1,
35 55 67 -1,
67 66 34 -1,
35 67 34 -1,
1 56 68 -1,
69 57 4 -1,
69 68 56 -1,
57 69 56 -1,
70 58 6 -1,
11 59 71 -1,
59 58 70 -1,
71 59 70 -1,
40 60 72 -1,
73 61 41 -1,
41 40 72 -1,
73 41 72 -1,
74 52 24 -1,
27 53 75 -1,
75 74 24 -1,
27 75 24 -1,
42 64 76 -1,
77 65 43 -1,
43 42 76 -1,
77 43 76 -1,
78 54 66 -1,
67 55 79 -1,
79 78 66 -1,
67 79 66 -1,
1 68 80 -1,
81 69 4 -1,
81 80 68 -1,
69 81 68 -1,
82 70 6 -1,
11 71 83 -1,
71 70 82 -1,
83 71 82 -1,
84 72 60 -1,
61 73 85 -1,
85 84 60 -1,
61 85 60 -1,
87 86 62 -1,
63 89 88 -1,
89 86 87 -1,
88 89 87 -1,
90 76 64 -1,
65 77 91 -1,
91 90 64 -1,
65 91 64 -1,
54 78 92 -1,
93 79 55 -1,
55 54 92 -1,
93 55 92 -1,
1 80 94 -1,
95 81 4 -1,
95 94 80 -1,
81 95 80 -1,
96 82 6 -1,
11 83 97 -1,
83 82 96 -1,
97 83 96 -1,
72 84 98 -1,
99 85 73 -1,
73 72 98 -1,
99 73 98 -1,
100 52 74 -1,
75 53 101 -1,
101 100 74 -1,
75 101 74 -1,
76 90 102 -1,
103 91 77 -1,
77 76 102 -1,
103 77 102 -1,
92 78 104 -1,
105 79 93 -1,
93 92 104 -1,
105 93 104 -1,
1 94 106 -1,
107 95 4 -1,
107 106 94 -1,
95 107 94 -1,
108 96 6 -1,
11 97 109 -1,
97 96 108 -1,
109 97 108 -1,
98 84 110 -1,
111 85 99 -1,
99 98 110 -1,
111 99 110 -1,
113 112 86 -1,
89 115 114 -1,
115 112 113 -1,
114 115 113 -1,
116 102 90 -1,
91 103 117 -1,
117 116 90 -1,
91 117 90 -1,
118 104 78 -1,
79 105 119 -1,
119 118 78 -1,
79 119 78 -1,
1 106 120 -1,
121 107 4 -1,
121 120 106 -1,
107 121 106 -1,
122 108 6 -1,
11 109 123 -1,
109 108 122 -1,
123 109 122 -1,
124 110 84 -1,
85 111 125 -1,
125 124 84 -1,
85 125 84 -1,
52 100 126 -1,
127 101 53 -1,
53 52 126 -1,
127 53 126 -1,
102 116 128 -1,
129 117 103 -1,
103 102 128 -1,
129 103 128 -1,
131 104 130 -1,
133 105 132 -1,
105 104 131 -1,
132 105 131 -1,
1 120 134 -1,
135 121 4 -1,
135 134 120 -1,
121 135 120 -1,
136 122 6 -1,
11 123 137 -1,
123 122 136 -1,
137 123 136 -1,
138 110 124 -1,
125 111 139 -1,
139 138 124 -1,
125 139 124 -1,
141 113 140 -1,
143 114 142 -1,
114 113 141 -1,
142 114 141 -1,
145 128 144 -1,
147 129 146 -1,
129 128 145 -1,
146 129 145 -1,
118 130 104 -1,
105 133 119 -1,
133 130 118 -1,
119 133 118 -1,
1 134 148 -1,
149 135 4 -1,
149 148 134 -1,
135 149 134 -1,
150 136 6 -1,
11 137 151 -1,
137 136 150 -1,
151 137 150 -1,
110 138 152 -1,
153 139 111 -1,
111 110 152 -1,
153 111 152 -1,
154 126 100 -1,
101 127 155 -1,
155 154 100 -1,
101 155 100 -1,
116 144 128 -1,
129 147 117 -1,
147 144 116 -1,
117 147 116 -1,
1 131 156 -1,
157 132 4 -1,
4 1 156 -1,
157 4 156 -1,
1 148 158 -1,
159 149 4 -1,
159 158 148 -1,
149 159 148 -1,
150 6 160 -1,
161 11 151 -1,
151 150 160 -1,
161 151 160 -1,
162 152 138 -1,
139 153 163 -1,
163 162 138 -1,
139 163 138 -1,
164 141 140 -1,
143 142 165 -1,
142 141 164 -1,
165 142 164 -1,
166 145 144 -1,
147 146 167 -1,
167 166 144 -1,
147 167 144 -1,
168 131 1 -1,
4 132 169 -1,
132 131 168 -1,
169 132 168 -1,
1 158 170 -1,
171 159 4 -1,
171 170 158 -1,
159 171 158 -1,
160 6 172 -1,
173 11 161 -1,
161 160 172 -1,
173 161 172 -1,
152 162 174 -1,
175 163 153 -1,
153 152 174 -1,
175 153 174 -1,
126 154 176 -1,
177 155 127 -1,
127 126 176 -1,
177 127 176 -1,
145 166 178 -1,
179 167 146 -1,
146 145 178 -1,
179 146 178 -1,
130 156 131 -1,
132 157 133 -1,
1 170 180 -1,
181 171 4 -1,
181 180 170 -1,
171 181 170 -1,
172 6 182 -1,
183 11 173 -1,
173 172 182 -1,
183 173 182 -1,
184 174 162 -1,
163 175 185 -1,
185 184 162 -1,
163 185 162 -1,
187 164 186 -1,
189 165 188 -1,
165 164 187 -1,
188 165 187 -1,
191 178 190 -1,
193 179 192 -1,
179 178 191 -1,
192 179 191 -1,
194 156 130 -1,
133 157 195 -1,
195 194 130 -1,
133 195 130 -1,
1 180 196 -1,
197 181 4 -1,
197 196 180 -1,
181 197 180 -1,
182 6 198 -1,
199 11 183 -1,
183 182 198 -1,
199 183 198 -1,
174 184 200 -1,
201 185 175 -1,
175 174 200 -1,
201 175 200 -1,
202 176 154 -1,
155 177 203 -1,
203 202 154 -1,
155 203 154 -1,
166 190 178 -1,
179 193 167 -1,
193 190 166 -1,
167 193 166 -1,
204 156 194 -1,
195 157 205 -1,
205 204 194 -1,
195 205 194 -1,
1 196 206 -1,
207 197 4 -1,
207 206 196 -1,
197 207 196 -1,
198 6 208 -1,
209 11 199 -1,
199 198 208 -1,
209 199 208 -1,
200 184 210 -1,
211 185 201 -1,
201 200 210 -1,
211 201 210 -1,
212 187 186 -1,
189 188 213 -1,
188 187 212 -1,
213 188 212 -1,
191 190 214 -1,
215 193 192 -1,
192 191 214 -1,
215 192 214 -1,
216 156 204 -1,
205 157 217 -1,
217 216 204 -1,
205 217 204 -1,
1 206 218 -1,
219 207 4 -1,
219 218 206 -1,
207 219 206 -1,
208 6 220 -1,
221 11 209 -1,
209 208 220 -1,
221 209 220 -1,
222 210 184 -1,
185 211 223 -1,
223 222 184 -1,
185 223 184 -1,
176 202 224 -1,
225 203 177 -1,
177 176 224 -1,
225 177 224 -1,
226 214 190 -1,
193 215 227 -1,
227 226 190 -1,
193 227 190 -1,
228 156 216 -1,
217 157 229 -1,
229 228 216 -1,
217 229 216 -1,
1 218 230 -1,
231 219 4 -1,
231 230 218 -1,
219 231 218 -1,
220 6 232 -1,
233 11 221 -1,
221 220 232 -1,
233 221 232 -1,
234 210 222 -1,
223 211 235 -1,
235 234 222 -1,
223 235 222 -1,
236 212 186 -1,
189 213 237 -1,
213 212 236 -1,
237 213 236 -1,
239 214 238 -1,
241 215 240 -1,
215 214 239 -1,
240 215 239 -1,
242 156 228 -1,
229 157 243 -1,
243 242 228 -1,
229 243 228 -1,
1 230 168 -1,
169 231 4 -1,
169 168 230 -1,
231 169 230 -1,
232 6 244 -1,
245 11 233 -1,
233 232 244 -1,
245 233 244 -1,
210 234 246 -1,
247 235 211 -1,
211 210 246 -1,
247 211 246 -1,
224 202 248 -1,
249 203 225 -1,
225 224 248 -1,
249 225 248 -1,
226 238 214 -1,
215 241 227 -1,
241 238 226 -1,
227 241 226 -1,
250 156 242 -1,
243 157 251 -1,
251 250 242 -1,
243 251 242 -1,
186 244 6 -1,
11 245 189 -1,
189 186 6 -1,
11 189 6 -1,
252 246 234 -1,
235 247 253 -1,
253 252 234 -1,
235 253 234 -1,
254 236 186 -1,
189 237 255 -1,
237 236 254 -1,
255 237 254 -1,
238 256 239 -1,
240 257 241 -1,
257 256 238 -1,
241 257 238 -1,
258 156 250 -1,
251 157 259 -1,
259 258 250 -1,
251 259 250 -1,
140 244 164 -1,
165 245 143 -1,
245 244 140 -1,
143 245 140 -1,
246 252 260 -1,
261 253 247 -1,
247 246 260 -1,
261 247 260 -1,
262 248 202 -1,
203 249 263 -1,
263 262 202 -1,
203 263 202 -1,
264 239 256 -1,
257 240 265 -1,
240 239 264 -1,
265 240 264 -1,
266 156 258 -1,
259 157 267 -1,
267 266 258 -1,
259 267 258 -1,
268 140 113 -1,
114 143 269 -1,
143 140 268 -1,
269 143 268 -1,
270 260 252 -1,
253 261 271 -1,
271 270 252 -1,
253 271 252 -1,
272 254 186 -1,
189 255 273 -1,
255 254 272 -1,
273 255 272 -1,
274 264 256 -1,
257 265 275 -1,
275 274 256 -1,
257 275 256 -1,
156 266 276 -1,
277 267 157 -1,
277 276 266 -1,
267 277 266 -1,
86 268 113 -1,
114 269 89 -1,
269 268 86 -1,
89 269 86 -1,
260 270 278 -1,
279 271 261 -1,
261 260 278 -1,
279 261 278 -1,
244 186 164 -1,
165 189 245 -1,
264 274 280 -1,
281 275 265 -1,
265 264 280 -1,
281 265 280 -1,
156 276 282 -1,
283 277 157 -1,
283 282 276 -1,
277 283 276 -1,
112 62 86 -1,
89 63 115 -1,
63 62 112 -1,
115 63 112 -1,
284 278 270 -1,
271 279 285 -1,
285 284 270 -1,
271 285 270 -1,
274 286 280 -1,
281 287 275 -1,
287 286 274 -1,
275 287 274 -1,
156 282 288 -1,
289 283 157 -1,
289 288 282 -1,
283 289 282 -1,
18 87 62 -1,
63 88 23 -1,
88 87 18 -1,
23 88 18 -1,
278 284 290 -1,
291 285 279 -1,
279 278 290 -1,
291 279 290 -1,
292 280 286 -1,
287 281 293 -1,
281 280 292 -1,
293 281 292 -1,
156 288 294 -1,
295 289 157 -1,
295 294 288 -1,
289 295 288 -1,
296 18 19 -1,
22 23 297 -1,
23 18 296 -1,
297 23 296 -1,
298 290 284 -1,
285 291 299 -1,
299 298 284 -1,
285 299 284 -1,
300 292 286 -1,
287 293 301 -1,
301 300 286 -1,
287 301 286 -1,
156 294 302 -1,
303 295 157 -1,
303 302 294 -1,
295 303 294 -1,
290 298 304 -1,
305 299 291 -1,
291 290 304 -1,
305 291 304 -1,
292 300 306 -1,
307 301 293 -1,
293 292 306 -1,
307 293 306 -1,
156 302 308 -1,
309 303 157 -1,
309 308 302 -1,
303 309 302 -1,
304 298 310 -1,
311 299 305 -1,
305 304 310 -1,
311 305 310 -1,
306 300 312 -1,
313 301 307 -1,
307 306 312 -1,
313 307 312 -1,
156 308 314 -1,
315 309 157 -1,
315 314 308 -1,
309 315 308 -1,
316 310 298 -1,
299 311 317 -1,
317 316 298 -1,
299 317 298 -1,
318 312 300 -1,
301 313 319 -1,
319 318 300 -1,
301 319 300 -1,
156 314 320 -1,
321 315 157 -1,
321 320 314 -1,
315 321 314 -1,
322 310 316 -1,
317 311 323 -1,
323 322 316 -1,
317 323 316 -1,
324 312 318 -1,
319 313 325 -1,
325 324 318 -1,
319 325 318 -1,
156 320 326 -1,
327 321 157 -1,
327 326 320 -1,
321 327 320 -1,
310 322 328 -1,
329 323 311 -1,
311 310 328 -1,
329 311 328 -1,
312 324 330 -1,
331 325 313 -1,
313 312 330 -1,
331 313 330 -1,
156 326 332 -1,
333 327 157 -1,
333 332 326 -1,
327 333 326 -1,
248 328 322 -1,
323 329 249 -1,
249 248 322 -1,
323 249 322 -1,
334 330 324 -1,
325 331 335 -1,
335 334 324 -1,
325 335 324 -1,
156 332 336 -1,
337 333 157 -1,
337 336 332 -1,
333 337 332 -1,
30 296 19 -1,
22 297 33 -1,
297 296 30 -1,
33 297 30 -1,
330 334 338 -1,
339 335 331 -1,
331 330 338 -1,
339 331 338 -1,
156 336 340 -1,
341 337 157 -1,
341 340 336 -1,
337 341 336 -1,
328 248 262 -1,
263 249 329 -1,
329 328 262 -1,
263 329 262 -1,
338 334 342 -1,
343 335 339 -1,
339 338 342 -1,
343 339 342 -1,
186 156 340 -1,
341 157 189 -1,
157 156 186 -1,
189 157 186 -1,
344 272 186 -1,
189 273 345 -1,
273 272 344 -1,
345 273 344 -1,
346 342 334 -1,
335 343 347 -1,
347 346 334 -1,
335 347 334 -1,
186 340 348 -1,
349 341 189 -1,
350 344 186 -1,
189 345 351 -1,
345 344 350 -1,
351 345 350 -1,
353 342 352 -1,
355 343 354 -1,
343 342 353 -1,
354 343 353 -1,
356 348 340 -1,
341 349 357 -1,
357 356 340 -1,
341 357 340 -1,
358 350 186 -1,
189 351 359 -1,
351 350 358 -1,
359 351 358 -1,
346 352 342 -1,
343 355 347 -1,
355 352 346 -1,
347 355 346 -1,
348 356 360 -1,
361 357 349 -1,
349 348 360 -1,
361 349 360 -1,
362 358 186 -1,
189 359 363 -1,
359 358 362 -1,
363 359 362 -1,
364 353 352 -1,
355 354 365 -1,
365 364 352 -1,
355 365 352 -1,
360 356 366 -1,
367 357 361 -1,
361 360 366 -1,
367 361 366 -1,
368 362 186 -1,
189 363 369 -1,
363 362 368 -1,
369 363 368 -1,
353 364 370 -1,
371 365 354 -1,
354 353 370 -1,
371 354 370 -1,
372 366 356 -1,
357 367 373 -1,
373 372 356 -1,
357 373 356 -1,
374 368 186 -1,
189 369 375 -1,
369 368 374 -1,
375 369 374 -1,
366 370 364 -1,
365 371 367 -1,
367 366 364 -1,
365 367 364 -1,
370 366 372 -1,
373 367 371 -1,
371 370 372 -1,
373 371 372 -1,
376 374 186 -1,
189 375 377 -1,
375 374 376 -1,
377 375 376 -1,
378 186 348 -1,
349 189 379 -1,
379 378 348 -1,
349 379 348 -1,
380 376 186 -1,
189 377 381 -1,
377 376 380 -1,
381 377 380 -1,
186 378 382 -1,
383 379 189 -1,
383 382 378 -1,
379 383 378 -1,
384 380 186 -1,
189 381 385 -1,
381 380 384 -1,
385 381 384 -1,
186 382 386 -1,
387 383 189 -1,
387 386 382 -1,
383 387 382 -1,
388 384 186 -1,
189 385 389 -1,
385 384 388 -1,
389 385 388 -1,
186 386 390 -1,
391 387 189 -1,
391 390 386 -1,
387 391 386 -1,
390 388 186 -1,
189 389 391 -1,
389 388 390 -1,
391 389 390 -1
] } }
Shape { appearance Appearance { material Material { diffuseColor 0.13725 0.18824 0.21961 } } geometry IndexedFaceSet { solid TRUE coord Coordinate { point [
10.039370 -6.102362 -5.826772,
10.039370 -8.858268 -5.826772,
12.795276 -8.858268 -5.826772,
12.795276 -8.858268 -5.354331,
10.039370 -8.858268 -5.354331,
10.039370 -6.102362 -5.354331,
12.795276 -6.102362 -5.826772,
12.795276 -6.102362 -5.354331
] } coordIndex [
2 1 0 -1,
5 4 3 -1,
4 1 2 -1,
3 4 2 -1,
5 0 1 -1,
4 5 1 -1,
0 6 2 -1,
3 7 5 -1,
7 6 0 -1,
5 7 0 -1,
3 2 6 -1,
7 3 6 -1
] } }
Shape { appearance Appearance { material Material { diffuseColor 0.94510 0.91765 0.87059 } } geometry IndexedFaceSet { solid TRUE coord Coordinate { point [
4.527559 -6.338583 -5.944882,
4.527559 -8.622047 -5.944882,
5.708661 -8.622047 -5.944882,
5.708661 -8.622047 -5.354331,
4.527559 -8.622047 -5.354331,
4.527559 -6.338583 -5.354331,
5.708661 -6.338583 -5.944882,
5.708661 -6.338583 -5.354331
] } coordIndex [
2 1 0 -1,
5 4 3 -1,
4 1 2 -1,
3 4 2 -1,
5 0 1 -1,
4 5 1 -1,
0 6 2 -1,
3 7 5 -1,
7 6 0 -1,
5 7 0 -1,
3 2 6 -1,
7 3 6 -1
] } }
Shape { appearance Appearance { material Material { diffuseColor 0.68235 0.72157 0.73333 } } geometry IndexedFaceSet { solid TRUE coord Coordinate { point [
0.472441 -5.905512 -6.732283,
0.472441 -6.200787 -6.732283,
2.165354 -6.200787 -6.732283,
0.472441 -5.905512 -6.555118,
0.472441 -6.200787 -6.555118,
2.165354 -8.759843 -6.732283,
0.472441 -8.759843 -6.732283,
0.472441 -9.055118 -6.732283,
0.472441 -8.759843 -6.555118,
0.472441 -9.055118 -6.555118,
2.755906 -5.905512 -6.732283,
2.755906 -5.905512 -6.555118,
2.755906 -9.055118 -6.732283,
2.755906 -9.055118 -6.555118,
2.165354 -8.759843 -6.555118,
2.165354 -6.200787 -6.555118,
0.472441 -6.200787 -5.531496,
2.165354 -6.200787 -5.531496,
0.472441 -5.905512 -5.531496,
0.472441 -8.759843 -5.531496,
0.472441 -9.055118 -5.531496,
2.165354 -8.759843 -5.531496,
2.755906 -5.905512 -5.531496,
2.755906 -9.055118 -5.531496,
2.165354 -6.200787 -5.354331,
0.472441 -6.200787 -5.354331,
0.472441 -5.905512 -5.354331,
0.472441 -9.055118 -5.354331,
0.472441 -8.759843 -5.354331,
2.165354 -8.759843 -5.354331,
2.755906 -5.905512 -5.354331,
2.755906 -9.055118 -5.354331
] } coordIndex [
2 1 0 -1,
3 0 1 -1,
4 3 1 -1,
7 6 5 -1,
8 6 7 -1,
9 8 7 -1,
2 0 10 -1,
11 10 0 -1,
3 11 0 -1,
12 7 5 -1,
9 7 12 -1,
13 9 12 -1,
2 10 12 -1,
13 12 10 -1,
11 13 10 -1,
12 5 2 -1,
6 1 5 -1,
14 4 8 -1,
4 1 6 -1,
8 4 6 -1,
2 5 1 -1,
4 14 15 -1,
16 4 15 -1,
17 16 15 -1,
18 3 4 -1,
16 18 4 -1,
19 8 9 -1,
20 19 9 -1,
21 14 8 -1,
19 21 8 -1,
22 11 3 -1,
18 22 3 -1,
20 9 13 -1,
23 20 13 -1,
23 13 11 -1,
22 23 11 -1,
17 15 14 -1,
21 17 14 -1,
26 25 24 -1,
26 18 16 -1,
25 26 16 -1,
29 28 27 -1,
28 19 20 -1,
27 28 20 -1,
30 26 24 -1,
30 22 18 -1,
26 30 18 -1,
29 27 31 -1,
27 20 23 -1,
31 27 23 -1,
31 30 24 -1,
31 23 22 -1,
30 31 22 -1,
24 29 31 -1,
19 16 21 -1,
29 25 28 -1,
25 16 19 -1,
28 25 19 -1,
17 21 16 -1,
25 29 24 -1
] } }
Shape { appearance Appearance { material Material { diffuseColor 0.14510 0.17255 0.19608 } } geometry IndexedFaceSet { solid TRUE coord Coordinate { point [
5.511811 -0.590551 -3.976378,
5.511811 -2.590551 -3.976378,
15.511811 -2.590551 -3.976378,
15.511811 -2.590551 -0.629921,
5.511811 -2.590551 -0.629921,
5.511811 -0.590551 -0.629921,
15.511811 -0.590551 -3.976378,
15.511811 -0.590551 -0.629921,
4.921260 -3.149606 0.000000,
4.921260 -11.149606 0.000000,
5.905512 -11.149606 0.000000,
5.905512 -11.149606 3.346457,
4.921260 -11.149606 3.346457,
4.921260 -3.149606 3.346457,
5.905512 -3.149606 0.000000,
5.905512 -3.149606 3.346457,
6.889764 -5.149606 0.000000,
7.874016 -3.149606 0.000000,
6.889764 -3.149606 0.000000,
6.889764 -3.149606 3.346457,
7.874016 -3.149606 3.346457,
6.889764 -5.149606 3.346457,
7.874016 -5.149606 0.000000,
7.874016 -5.149606 3.346457
] } coordIndex [
2 1 0 -1,
5 4 3 -1,
4 1 2 -1,
3 4 2 -1,
5 0 1 -1,
4 5 1 -1,
0 6 2 -1,
3 7 5 -1,
7 6 0 -1,
5 7 0 -1,
3 2 6 -1,
7 3 6 -1,
10 9 8 -1,
13 12 11 -1,
12 9 10 -1,
11 12 10 -1,
13 8 9 -1,
12 13 9 -1,
8 14 10 -1,
11 15 13 -1,
15 14 8 -1,
13 15 8 -1,
11 10 14 -1,
15 11 14 -1,
18 17 16 -1,
21 20 19 -1,
20 17 18 -1,
19 20 18 -1,
19 18 16 -1,
21 19 16 -1,
22 16 17 -1,
20 21 23 -1,
21 16 22 -1,
23 21 22 -1,
23 22 17 -1,
20 23 17 -1
] } }
